<svg width="45" height="44" viewBox="0 0 45 44" fill="none" xmlns="http://www.w3.org/2000/svg">
<g clip-path="url(#clip0_29_519)">
<g clip-path="url(#clip1_29_519)">
<g clip-path="url(#clip2_29_519)">
<mask id="mask0_29_519" style="mask-type:luminance" maskUnits="userSpaceOnUse" x="0" y="0" width="45" height="44">
<path d="M1 43.5V0.5H44V43.5H1Z" fill="white" stroke="white"/>
</mask>
<g mask="url(#mask0_29_519)">
<path d="M22.5208 10.5451H22.5202C21.3395 10.5451 20.1597 10.5646 19.2758 10.5841C18.8337 10.5938 18.4652 10.6035 18.2071 10.6108C18.0781 10.6145 17.9766 10.6175 17.9073 10.6197L17.8281 10.6221L17.8088 10.6228C14.1047 10.6272 11.1027 13.629 11.0979 17.3331L11.0974 17.348L11.0951 17.4164C11.0931 17.4763 11.0903 17.5641 11.0869 17.6761C11.0801 17.9002 11.0709 18.2214 11.0616 18.6105C11.043 19.3883 11.0236 20.4387 11.0206 21.5271L11.0206 21.5279L11.0202 21.8113V21.8119C11.0202 23.03 11.0397 24.2679 11.0592 25.2005C11.0689 25.667 11.0786 26.0575 11.0859 26.3315C11.0896 26.4685 11.0926 26.5764 11.0948 26.6501L11.0973 26.7345L11.0979 26.756C11.1021 30.4603 14.104 33.4626 17.8082 33.4673L17.8252 33.4679L17.8995 33.4704C17.932 33.4715 17.9721 33.4728 18.0192 33.4743C18.0662 33.4757 18.1204 33.4774 18.181 33.4793C18.4236 33.4866 18.7705 33.4963 19.1886 33.5061C20.0245 33.5256 21.1461 33.5451 22.287 33.5451C23.5051 33.5451 24.7624 33.5256 25.7143 33.5061C26.1905 33.4964 26.5907 33.4866 26.872 33.4793C27.0126 33.4757 27.1235 33.4726 27.1993 33.4705L27.2861 33.468L27.3085 33.4673L27.3087 33.4673C31.0133 33.4634 33.9383 30.5384 33.9425 26.8339L33.9431 26.8128L33.9456 26.7294C33.9477 26.6566 33.9508 26.55 33.9544 26.4147C33.9618 26.1441 33.9715 25.7586 33.9812 25.2987C34.0007 24.3793 34.0202 23.1608 34.0202 21.9673V21.966L34.0188 21.4082L34.0188 21.407C34.0135 20.3366 33.9944 19.297 33.9765 18.5255C33.9676 18.1396 33.9591 17.8205 33.9527 17.5977C33.9495 17.4863 33.9469 17.399 33.9451 17.3394L33.943 17.2714L33.9425 17.2559C33.9381 13.5516 31.0134 10.627 27.3091 10.6228L27.2909 10.6222L27.2154 10.6199C27.1495 10.6179 27.0528 10.6151 26.9298 10.6117C26.6838 10.6048 26.3324 10.5957 25.9102 10.5864C25.0662 10.5677 23.9381 10.5483 22.8039 10.5454L22.8032 10.5454L22.5208 10.5451ZM26.9081 13.5888H26.921C28.2253 13.5888 29.2268 13.9894 29.9013 14.6639C30.5759 15.3384 30.9764 16.3399 30.9764 17.6442H30.9763L30.9766 17.6573L31.4764 17.6442L30.9766 17.6574L30.9766 17.6574L30.9766 17.6577L30.9767 17.659L30.9768 17.6642L30.9773 17.6848L30.9793 17.7648L30.9865 18.0653C30.9925 18.3224 31.0005 18.685 31.0084 19.1071C31.0244 19.9519 31.0402 21.0325 31.0402 21.9812C31.0402 22.9513 31.0244 24.0639 31.0084 24.9353C31.0005 25.3707 30.9925 25.7454 30.9865 26.0111L30.9793 26.3219L30.9773 26.4047L30.9768 26.426L30.9766 26.4313L30.9766 26.4327L30.9766 26.433L30.9766 26.4331L31.4764 26.4458L30.9764 26.4331V26.4458C30.9764 27.7501 30.5759 28.7516 29.9013 29.4261C29.2268 30.1006 28.2253 30.5012 26.921 30.5012V30.501L26.9088 30.5013L26.9087 30.5013L26.9084 30.5013L26.9072 30.5014L26.9026 30.5015L26.884 30.5019L26.8117 30.5036L26.5387 30.5098C26.3046 30.515 25.9726 30.5219 25.5814 30.5292C24.7988 30.5437 23.7807 30.5592 22.8355 30.5637C22.8354 30.5637 22.8352 30.5637 22.835 30.5637L22.329 30.565C22.3288 30.565 22.3286 30.565 22.3284 30.565C21.4022 30.565 20.3733 30.5491 19.5746 30.5332C19.1755 30.5252 18.8344 30.5173 18.5932 30.5113C18.4726 30.5083 18.377 30.5058 18.3116 30.5041L18.2367 30.5021L18.2176 30.5016L18.2127 30.5014L18.2115 30.5014L18.2113 30.5014L18.2112 30.5014L18.1971 31.0012L18.2112 30.5012H18.1971C16.8984 30.5012 15.8752 30.0845 15.1779 29.3872C14.4806 28.6899 14.0639 27.6668 14.0639 26.368H14.0641L14.0638 26.3554L14.0638 26.3553L14.0638 26.355L14.0637 26.3536L14.0636 26.3482L14.0631 26.3269L14.0611 26.2437L14.0539 25.9313C14.0479 25.6641 14.0399 25.2871 14.032 24.8481C14.0161 23.9694 14.0002 22.8443 14.0002 21.8538C14.0002 20.9273 14.0161 19.8787 14.032 19.0603C14.0399 18.6514 14.0479 18.3006 14.0538 18.052L14.061 17.7615L14.063 17.6842L14.0636 17.6644L14.0637 17.6594L14.0637 17.6582L14.0637 17.6579L14.0637 17.6578L13.5639 17.6442L14.0639 17.6578V17.6442C14.0639 16.3461 14.4801 15.345 15.1736 14.6682C15.8687 13.9899 16.8923 13.5888 18.1971 13.5888V13.589L18.2104 13.5886L18.2105 13.5886L18.2108 13.5886L18.2121 13.5886L18.2172 13.5884L18.2375 13.5879L18.3164 13.5859C18.3854 13.5842 18.4862 13.5817 18.6132 13.5787C18.8672 13.5727 19.226 13.5648 19.645 13.5568C20.4835 13.5409 21.5607 13.525 22.5202 13.525C23.4798 13.525 24.5764 13.5409 25.4345 13.5568C25.8632 13.5648 26.2318 13.5727 26.4931 13.5787L26.7988 13.5859L26.8802 13.5879L26.9011 13.5884L26.9064 13.5886L26.9077 13.5886L26.908 13.5886L26.9081 13.5886L26.921 13.0888L26.9081 13.5888ZM1.6875 22C1.6875 10.5034 11.002 1.1875 22.5 1.1875C33.9966 1.1875 43.3125 10.5034 43.3125 22C43.3125 33.4966 33.998 42.8125 22.5 42.8125C11.0034 42.8125 1.6875 33.4966 1.6875 22ZM22.5201 15.9102C19.132 15.9102 16.3854 18.6568 16.3854 22.045C16.3854 25.4331 19.132 28.1797 22.5201 28.1797C25.9083 28.1797 28.655 25.4332 28.655 22.045C28.655 18.6568 25.9083 15.9102 22.5201 15.9102ZM22.5201 18.8784C24.2691 18.8784 25.6869 20.2961 25.6869 22.045C25.6869 23.7939 24.2691 25.2116 22.5201 25.2116C20.7713 25.2116 19.3535 23.7939 19.3535 22.045C19.3535 20.296 20.7713 18.8784 22.5201 18.8784ZM28.4246 14.3465C27.3942 14.3465 26.563 15.1852 26.563 16.2148C26.563 17.2444 27.3942 18.083 28.4246 18.083C29.455 18.083 30.2861 17.2443 30.2861 16.2148C30.2861 15.1853 29.4551 14.3465 28.4246 14.3465Z" fill="#9945FF" stroke="black"/>
</g>
</g>
</g>
</g>
<defs>
<clipPath id="clip0_29_519">
<rect width="44" height="44" fill="white" transform="translate(0.5)"/>
</clipPath>
<clipPath id="clip1_29_519">
<rect width="44" height="44" fill="white" transform="translate(0.5)"/>
</clipPath>
<clipPath id="clip2_29_519">
<rect width="44" height="44" fill="white" transform="translate(0.5)"/>
</clipPath>
</defs>
</svg>
