<svg width="43" height="44" viewBox="0 0 43 44" fill="none" xmlns="http://www.w3.org/2000/svg">
<path d="M31.357 14.2925L31.4134 14.027L31.4036 14.0172C31.4973 13.3224 31.3585 12.7186 30.9503 12.3208C30.4831 11.8656 29.8148 11.8261 29.219 12.0408L29.2189 12.0407L29.2085 12.0447L8.66047 19.9687L8.6586 19.9695C8.27332 20.1198 7.95358 20.298 7.71747 20.5055C7.48403 20.7106 7.29343 20.9807 7.26493 21.3095C7.23505 21.6543 7.39275 21.9445 7.61472 22.1531C7.82959 22.355 8.12201 22.5015 8.4494 22.6047L8.45076 22.6051L13.7102 24.2469L13.9304 24.3156L14.1256 24.1927L24.4148 17.7155L16.516 24.852L16.3664 24.9871L16.3524 25.1882L15.9742 30.6112L15.9369 31.146H16.473C16.829 31.146 17.1147 31.066 17.3613 30.9225C17.5828 30.7937 17.7538 30.6225 17.8855 30.4906L17.8972 30.4789L20.1597 28.2999L25.1483 31.9767L25.1724 31.9944L25.1985 32.0092C25.7425 32.3174 26.34 32.4677 26.8805 32.2233C27.4193 31.9796 27.7149 31.4277 27.8581 30.7802L27.859 30.776L31.357 14.2925ZM0.6875 22C0.6875 10.5034 10.002 1.1875 21.5 1.1875C32.9966 1.1875 42.3125 10.5034 42.3125 22C42.3125 33.4966 32.998 42.8125 21.5 42.8125C10.0034 42.8125 0.6875 33.4966 0.6875 22Z" fill="#9945FF" stroke="black"/>
</svg>
