<svg width="45" height="44" viewBox="0 0 45 44" fill="none" xmlns="http://www.w3.org/2000/svg">
<g clip-path="url(#clip0_29_515)">
<g clip-path="url(#clip1_29_515)">
<path d="M23.6961 9.14415L23.2074 9.15161L23.6843 21.3998L23.1843 21.397C23.1843 21.3972 23.1843 21.3975 23.1843 21.3977C23.1817 21.8579 23.1825 22.3173 23.1833 22.7741V22.7755V22.7756C23.1856 24.0596 23.1877 25.3246 23.1168 26.5922L23.1164 26.5998L23.1162 26.6074C23.1109 26.8161 23.0049 27.02 22.8166 27.3458L22.7871 27.3969C22.305 28.1827 21.4187 28.7126 20.5144 28.7207L20.4944 28.7209L20.4744 28.7227C19.1378 28.842 17.8232 27.7304 17.6093 26.3826C17.6078 26.3154 17.6057 26.2485 17.6036 26.1845L17.6029 26.1632L17.6029 26.1627C17.5875 25.695 17.5837 25.3512 17.7087 25.0477L17.7137 25.0357L17.718 25.0233C17.9268 24.4304 18.3271 23.9082 18.8438 23.5719L18.8439 23.5721L18.8549 23.5645C19.553 23.083 20.516 22.9959 21.3585 23.2683L22.0123 23.4796V22.7925C22.0123 22.1854 22.0228 21.5777 22.0334 20.9649L22.0337 20.9479V20.9478L22.0339 20.9333C22.0481 20.1158 22.0625 19.2892 22.0512 18.4614L22.0456 18.0527L21.6441 17.9769C19.3718 17.5476 16.9603 18.269 15.2357 19.764C13.7146 21.0568 12.7382 22.9489 12.5508 24.9271L12.5495 24.9404L12.549 24.9538C12.5287 25.4506 12.5391 25.9528 12.5588 26.4453L12.5593 26.4577L12.5604 26.47C12.7797 28.915 14.2579 31.1794 16.3596 32.4175C17.6218 33.1624 19.108 33.5713 20.6054 33.4896C23.0357 33.4445 25.3903 32.1451 26.7541 30.1483C27.5986 28.948 28.0744 27.5045 28.1572 26.0546L28.1579 26.0429L28.158 26.0312C28.1763 24.2572 28.1755 22.4799 28.1747 20.7042V20.7028C28.1744 19.9369 28.1741 19.1712 28.1753 18.4057C28.4538 18.5695 28.7428 18.7253 29.0446 18.8632C30.3914 19.4999 31.8713 19.8035 33.3285 19.8541L33.8459 19.8721V19.3544V15.4294V14.9816L33.4007 14.9324C31.9599 14.7734 30.5477 14.3016 29.5684 13.3309L29.5684 13.3309L29.5635 13.3261C28.5862 12.3838 28.0843 10.9971 28.0112 9.59851L27.9863 9.12095L27.5081 9.12462C27.0032 9.1285 26.4982 9.12928 25.9906 9.13007C25.2308 9.13123 24.4655 9.13241 23.6961 9.14415ZM1.6875 22.4121C1.6875 10.9155 11.002 1.59961 22.5 1.59961C33.9966 1.59961 43.3125 10.9155 43.3125 22.4121C43.3125 33.9087 33.998 43.2246 22.5 43.2246C11.0034 43.2246 1.6875 33.9087 1.6875 22.4121Z" fill="#9945FF" stroke="black"/>
</g>
</g>
<defs>
<clipPath id="clip0_29_515">
<rect width="44" height="44" fill="white" transform="translate(0.5)"/>
</clipPath>
<clipPath id="clip1_29_515">
<rect width="44" height="44" fill="white" transform="translate(0.5)"/>
</clipPath>
</defs>
</svg>
