<svg width="312" height="55" viewBox="0 0 312 55" fill="none" xmlns="http://www.w3.org/2000/svg">
<path d="M49.6514 12.1749L49.6525 12.1737L59.6337 1.47145L59.6371 1.46783C59.6832 1.4191 59.718 1.36079 59.7389 1.29707L60.4044 1.51574L59.7389 1.29706C59.7599 1.23335 59.7665 1.16578 59.7583 1.09918C59.7501 1.0326 59.7273 0.968662 59.6915 0.911937M49.6514 12.1749L59.6915 0.911937M49.6514 12.1749C49.501 12.3369 49.3189 12.4661 49.1164 12.5545C48.9141 12.6429 48.6957 12.6886 48.4749 12.6889M49.6514 12.1749L48.4749 12.6889M59.6915 0.911937C59.6558 0.855339 59.608 0.807301 59.5516 0.771248M59.6915 0.911937L59.5516 0.771248M59.5516 0.771248C59.4761 0.72329 59.3881 0.698694 59.2987 0.700548L59.2914 0.700699H59.2842H11.9694C11.7485 0.700974 11.53 0.74674 11.3275 0.835148L11.0489 0.19706L11.3275 0.835148C11.125 0.923597 10.9428 1.05283 10.7924 1.21479L10.7917 1.21559L0.82298 11.9164C0.822813 11.9166 0.822645 11.9168 0.822477 11.917C0.761972 11.9825 0.721819 12.0642 0.706916 12.1521C0.691972 12.2403 0.703067 12.331 0.738843 12.4129C0.774618 12.4949 0.833521 12.5647 0.908342 12.6137C0.983051 12.6626 1.07039 12.6887 1.1597 12.6889C1.15983 12.6889 1.15996 12.6889 1.16009 12.6889M59.5516 0.771248L1.1597 13.3893L1.16009 12.6889M1.16009 12.6889H48.4743M1.16009 12.6889H48.4743M48.4743 12.6889L48.4749 12.6889M48.4743 12.6889L48.4749 12.6889M59.6377 42.1527L59.6337 42.1569L49.6525 52.8591L49.6514 52.8603C49.501 53.0223 49.3189 53.1515 49.1164 53.2399C48.9138 53.3284 48.6953 53.3741 48.4742 53.3743H1.16009C1.07064 53.3743 0.983157 53.3481 0.908346 53.2991C0.833527 53.2501 0.774622 53.1804 0.738844 53.0984C0.703068 53.0164 0.691971 52.9258 0.706916 52.8376C0.721803 52.7497 0.761893 52.6681 0.822305 52.6026C0.822531 52.6024 0.822757 52.6021 0.822983 52.6019L10.7917 41.901L10.7924 41.9002C10.9428 41.7383 11.125 41.609 11.3275 41.5206L11.0472 40.8787L11.3275 41.5206C11.5301 41.4321 11.7487 41.3864 11.9697 41.3862H59.2842H59.2914L59.2986 41.386C59.3882 41.3842 59.4764 41.4088 59.552 41.457C59.6276 41.5051 59.6872 41.5745 59.7235 41.6565C59.7597 41.7384 59.7709 41.8293 59.7556 41.9176C59.7404 42.0059 59.6993 42.0877 59.6377 42.1527ZM49.1155 21.1769C49.3185 21.2655 49.5013 21.3946 49.6528 21.5562C49.653 21.5564 49.6533 21.5566 49.6535 21.5568L59.6153 32.262C59.6759 32.3274 59.7162 32.4092 59.7313 32.4971C59.7463 32.5851 59.7354 32.6756 59.6999 32.7575C59.6644 32.8393 59.6058 32.9091 59.5313 32.9583C59.4573 33.0072 59.3707 33.0336 59.282 33.0344H11.9707C11.7496 33.033 11.531 32.9866 11.3283 32.8981C11.1253 32.8095 10.9424 32.6804 10.7909 32.5187C10.7907 32.5186 10.7906 32.5184 10.7904 32.5182L0.82298 21.8131C0.822827 21.8129 0.822673 21.8127 0.82252 21.8126C0.76199 21.747 0.721822 21.6653 0.706916 21.5773C0.691972 21.4892 0.703067 21.3985 0.738843 21.3166C0.774617 21.2346 0.83352 21.1648 0.908342 21.1158C0.983165 21.0668 1.07065 21.0407 1.16009 21.0406H48.4729C48.6941 21.042 48.9128 21.0884 49.1155 21.1769Z" fill="#C0C0C0" stroke="#9945FF" stroke-width="1.4009"/>
<g filter="url(#filter0_d_38_1227)">
<mask id="path-2-outside-1_38_1227" maskUnits="userSpaceOnUse" x="73.2861" y="11.1685" width="239" height="32" fill="black">
<rect fill="white" x="73.2861" y="11.1685" width="239" height="32"/>
<path d="M91.76 23.2782C94.7016 23.5991 97.0549 24.1206 98.8198 24.8426C100.612 25.5646 101.908 26.514 102.711 27.6906C103.513 28.8673 103.914 30.338 103.914 32.103C103.914 34.0284 103.286 35.7131 102.029 37.1572C100.799 38.5745 99.0872 39.6709 96.8944 40.4464C94.7016 41.1952 92.2012 41.5696 89.3933 41.5696C86.2646 41.5696 83.6171 41.1818 81.451 40.4063C79.285 39.6308 77.6671 38.6012 76.5974 37.3176C75.5278 36.0073 74.9929 34.5766 74.9929 33.0256C74.9929 32.7582 75.0731 32.5442 75.2336 32.3838C75.4208 32.2233 75.6481 32.1431 75.9155 32.1431H84.1386C84.7002 32.1431 85.1548 32.3169 85.5024 32.6646C85.957 33.0924 86.4651 33.3866 87.0267 33.5471C87.5883 33.6808 88.3772 33.7476 89.3933 33.7476C91.9338 33.7476 93.204 33.3599 93.204 32.5844C93.204 32.2635 93.0302 31.996 92.6826 31.7821C92.3617 31.5414 91.7734 31.3409 90.9176 31.1804C90.0886 30.9932 88.8585 30.806 87.2273 30.6188C83.5636 30.191 80.7558 29.2818 78.8036 27.8912C76.8515 26.4739 75.8754 24.4816 75.8754 21.9144C75.8754 20.096 76.4236 18.4915 77.52 17.1009C78.6164 15.7103 80.1674 14.6273 82.1731 13.8518C84.2054 13.0763 86.5587 12.6885 89.2329 12.6885C92.014 12.6885 94.4475 13.1297 96.5334 14.0122C98.6193 14.8679 100.21 15.9376 101.307 17.2212C102.403 18.5048 102.951 19.7617 102.951 20.9918C102.951 21.2592 102.858 21.4732 102.671 21.6336C102.51 21.7941 102.283 21.8743 101.989 21.8743H93.3645C92.9099 21.8743 92.4954 21.7138 92.121 21.3929C91.8268 21.1255 91.4792 20.9116 91.0781 20.7511C90.677 20.5907 90.0619 20.5105 89.2329 20.5105C87.4412 20.5105 86.5454 20.8848 86.5454 21.6336C86.5454 22.0347 86.893 22.3556 87.5883 22.5963C88.2836 22.8102 89.6741 23.0376 91.76 23.2782ZM138.556 29.5759C138.556 33.6674 137.192 36.6892 134.464 38.6414C131.763 40.5935 128.153 41.5696 123.634 41.5696C119.114 41.5696 115.491 40.5935 112.763 38.6414C110.062 36.6892 108.712 33.6407 108.712 29.4957V24.7624C108.712 22.0347 109.354 19.7751 110.637 17.9834C111.948 16.1649 113.726 14.8278 115.972 13.9721C118.219 13.1164 120.772 12.6885 123.634 12.6885C126.495 12.6885 129.036 13.1164 131.255 13.9721C133.502 14.8278 135.28 16.1516 136.59 17.9432C137.901 19.7349 138.556 21.9813 138.556 24.6822V29.5759ZM119.542 30.338C119.542 31.4345 119.903 32.2768 120.625 32.8651C121.374 33.4535 122.377 33.7476 123.634 33.7476C124.891 33.7476 125.88 33.4535 126.602 32.8651C127.351 32.2501 127.725 31.3943 127.725 30.2979V23.9601C127.725 22.8637 127.351 22.0214 126.602 21.433C125.88 20.818 124.891 20.5105 123.634 20.5105C122.377 20.5105 121.374 20.8046 120.625 21.3929C119.903 21.9813 119.542 22.8236 119.542 23.92V30.338ZM170.791 32.9454C171.085 32.9454 171.339 33.0523 171.553 33.2663C171.767 33.4802 171.874 33.7343 171.874 34.0284V40.0854C171.874 40.3796 171.767 40.6336 171.553 40.8476C171.339 41.0615 171.085 41.1685 170.791 41.1685H147.365C147.071 41.1685 146.817 41.0615 146.603 40.8476C146.389 40.6336 146.282 40.3796 146.282 40.0854V14.1727C146.282 13.8785 146.389 13.6245 146.603 13.4105C146.817 13.1966 147.071 13.0896 147.365 13.0896H156.029C156.323 13.0896 156.577 13.1966 156.791 13.4105C157.005 13.6245 157.112 13.8785 157.112 14.1727V32.9454H170.791ZM188.264 40.0854C188.184 40.3261 187.983 40.5668 187.662 40.8074C187.368 41.0481 186.98 41.1685 186.499 41.1685H180.883C180.375 41.1685 179.947 41.0214 179.6 40.7272C179.279 40.4063 179.092 40.0453 179.038 39.6442L175.548 14.0924V13.9721C175.548 13.7314 175.629 13.5309 175.789 13.3704C175.976 13.1832 176.19 13.0896 176.431 13.0896H183.33C183.865 13.0896 184.293 13.2501 184.614 13.571C184.961 13.8919 185.162 14.293 185.215 14.7744L186.499 27.0488L188.826 20.6709C188.906 20.4035 189.093 20.1494 189.387 19.9088C189.708 19.6414 190.109 19.5076 190.591 19.5076H193.318C193.8 19.5076 194.187 19.6414 194.482 19.9088C194.802 20.1494 195.003 20.4035 195.083 20.6709L197.41 27.0488L198.693 14.7744C198.747 14.293 198.934 13.8919 199.255 13.571C199.603 13.2501 200.044 13.0896 200.579 13.0896H207.478C207.719 13.0896 207.919 13.1832 208.08 13.3704C208.267 13.5309 208.36 13.7314 208.36 13.9721V14.0924L204.871 39.6442C204.817 40.0453 204.617 40.4063 204.269 40.7272C203.948 41.0214 203.534 41.1685 203.025 41.1685H197.41C196.928 41.1685 196.527 41.0481 196.206 40.8074C195.912 40.5668 195.725 40.3261 195.645 40.0854L191.954 31.6217L188.264 40.0854ZM220.098 39.8046C219.75 40.7138 219.148 41.1685 218.293 41.1685H210.711C210.471 41.1685 210.257 41.0882 210.07 40.9278C209.909 40.7406 209.829 40.5267 209.829 40.286L209.869 40.0453L218.614 14.4133C218.721 14.0657 218.921 13.7582 219.215 13.4907C219.509 13.2233 219.911 13.0896 220.419 13.0896H231.57C232.078 13.0896 232.479 13.2233 232.773 13.4907C233.068 13.7582 233.268 14.0657 233.375 14.4133L242.12 40.0453L242.16 40.286C242.16 40.5267 242.066 40.7406 241.879 40.9278C241.719 41.0882 241.518 41.1685 241.277 41.1685H233.696C232.84 41.1685 232.239 40.7138 231.891 39.8046L230.888 36.9967H221.101L220.098 39.8046ZM225.994 20.8314L223.146 29.1748H228.842L225.994 20.8314ZM272.509 13.0896C272.803 13.0896 273.058 13.1966 273.271 13.4105C273.485 13.6245 273.592 13.8785 273.592 14.1727V40.0854C273.592 40.3796 273.485 40.6336 273.271 40.8476C273.058 41.0615 272.803 41.1685 272.509 41.1685H266.051C265.409 41.1685 264.875 40.8877 264.447 40.3261L255.702 29.1748V40.0854C255.702 40.3796 255.595 40.6336 255.381 40.8476C255.167 41.0615 254.913 41.1685 254.619 41.1685H247.158C246.864 41.1685 246.61 41.0615 246.396 40.8476C246.182 40.6336 246.075 40.3796 246.075 40.0854V14.1727C246.075 13.8785 246.182 13.6245 246.396 13.4105C246.61 13.1966 246.864 13.0896 247.158 13.0896H253.656C254.298 13.0896 254.82 13.357 255.221 13.8919L263.965 25.9658V14.1727C263.965 13.8785 264.072 13.6245 264.286 13.4105C264.5 13.1966 264.754 13.0896 265.048 13.0896H272.509ZM288.258 39.8046C287.91 40.7138 287.309 41.1685 286.453 41.1685H278.872C278.631 41.1685 278.417 41.0882 278.23 40.9278C278.069 40.7406 277.989 40.5267 277.989 40.286L278.029 40.0453L286.774 14.4133C286.881 14.0657 287.081 13.7582 287.375 13.4907C287.67 13.2233 288.071 13.0896 288.579 13.0896H299.73C300.238 13.0896 300.639 13.2233 300.933 13.4907C301.228 13.7582 301.428 14.0657 301.535 14.4133L310.28 40.0453L310.32 40.286C310.32 40.5267 310.226 40.7406 310.039 40.9278C309.879 41.0882 309.678 41.1685 309.437 41.1685H301.856C301 41.1685 300.399 40.7138 300.051 39.8046L299.048 36.9967H289.261L288.258 39.8046ZM294.154 20.8314L291.306 29.1748H297.002L294.154 20.8314Z"/>
</mask>
<path d="M91.76 23.2782C94.7016 23.5991 97.0549 24.1206 98.8198 24.8426C100.612 25.5646 101.908 26.514 102.711 27.6906C103.513 28.8673 103.914 30.338 103.914 32.103C103.914 34.0284 103.286 35.7131 102.029 37.1572C100.799 38.5745 99.0872 39.6709 96.8944 40.4464C94.7016 41.1952 92.2012 41.5696 89.3933 41.5696C86.2646 41.5696 83.6171 41.1818 81.451 40.4063C79.285 39.6308 77.6671 38.6012 76.5974 37.3176C75.5278 36.0073 74.9929 34.5766 74.9929 33.0256C74.9929 32.7582 75.0731 32.5442 75.2336 32.3838C75.4208 32.2233 75.6481 32.1431 75.9155 32.1431H84.1386C84.7002 32.1431 85.1548 32.3169 85.5024 32.6646C85.957 33.0924 86.4651 33.3866 87.0267 33.5471C87.5883 33.6808 88.3772 33.7476 89.3933 33.7476C91.9338 33.7476 93.204 33.3599 93.204 32.5844C93.204 32.2635 93.0302 31.996 92.6826 31.7821C92.3617 31.5414 91.7734 31.3409 90.9176 31.1804C90.0886 30.9932 88.8585 30.806 87.2273 30.6188C83.5636 30.191 80.7558 29.2818 78.8036 27.8912C76.8515 26.4739 75.8754 24.4816 75.8754 21.9144C75.8754 20.096 76.4236 18.4915 77.52 17.1009C78.6164 15.7103 80.1674 14.6273 82.1731 13.8518C84.2054 13.0763 86.5587 12.6885 89.2329 12.6885C92.014 12.6885 94.4475 13.1297 96.5334 14.0122C98.6193 14.8679 100.21 15.9376 101.307 17.2212C102.403 18.5048 102.951 19.7617 102.951 20.9918C102.951 21.2592 102.858 21.4732 102.671 21.6336C102.51 21.7941 102.283 21.8743 101.989 21.8743H93.3645C92.9099 21.8743 92.4954 21.7138 92.121 21.3929C91.8268 21.1255 91.4792 20.9116 91.0781 20.7511C90.677 20.5907 90.0619 20.5105 89.2329 20.5105C87.4412 20.5105 86.5454 20.8848 86.5454 21.6336C86.5454 22.0347 86.893 22.3556 87.5883 22.5963C88.2836 22.8102 89.6741 23.0376 91.76 23.2782ZM138.556 29.5759C138.556 33.6674 137.192 36.6892 134.464 38.6414C131.763 40.5935 128.153 41.5696 123.634 41.5696C119.114 41.5696 115.491 40.5935 112.763 38.6414C110.062 36.6892 108.712 33.6407 108.712 29.4957V24.7624C108.712 22.0347 109.354 19.7751 110.637 17.9834C111.948 16.1649 113.726 14.8278 115.972 13.9721C118.219 13.1164 120.772 12.6885 123.634 12.6885C126.495 12.6885 129.036 13.1164 131.255 13.9721C133.502 14.8278 135.28 16.1516 136.59 17.9432C137.901 19.7349 138.556 21.9813 138.556 24.6822V29.5759ZM119.542 30.338C119.542 31.4345 119.903 32.2768 120.625 32.8651C121.374 33.4535 122.377 33.7476 123.634 33.7476C124.891 33.7476 125.88 33.4535 126.602 32.8651C127.351 32.2501 127.725 31.3943 127.725 30.2979V23.9601C127.725 22.8637 127.351 22.0214 126.602 21.433C125.88 20.818 124.891 20.5105 123.634 20.5105C122.377 20.5105 121.374 20.8046 120.625 21.3929C119.903 21.9813 119.542 22.8236 119.542 23.92V30.338ZM170.791 32.9454C171.085 32.9454 171.339 33.0523 171.553 33.2663C171.767 33.4802 171.874 33.7343 171.874 34.0284V40.0854C171.874 40.3796 171.767 40.6336 171.553 40.8476C171.339 41.0615 171.085 41.1685 170.791 41.1685H147.365C147.071 41.1685 146.817 41.0615 146.603 40.8476C146.389 40.6336 146.282 40.3796 146.282 40.0854V14.1727C146.282 13.8785 146.389 13.6245 146.603 13.4105C146.817 13.1966 147.071 13.0896 147.365 13.0896H156.029C156.323 13.0896 156.577 13.1966 156.791 13.4105C157.005 13.6245 157.112 13.8785 157.112 14.1727V32.9454H170.791ZM188.264 40.0854C188.184 40.3261 187.983 40.5668 187.662 40.8074C187.368 41.0481 186.98 41.1685 186.499 41.1685H180.883C180.375 41.1685 179.947 41.0214 179.6 40.7272C179.279 40.4063 179.092 40.0453 179.038 39.6442L175.548 14.0924V13.9721C175.548 13.7314 175.629 13.5309 175.789 13.3704C175.976 13.1832 176.19 13.0896 176.431 13.0896H183.33C183.865 13.0896 184.293 13.2501 184.614 13.571C184.961 13.8919 185.162 14.293 185.215 14.7744L186.499 27.0488L188.826 20.6709C188.906 20.4035 189.093 20.1494 189.387 19.9088C189.708 19.6414 190.109 19.5076 190.591 19.5076H193.318C193.8 19.5076 194.187 19.6414 194.482 19.9088C194.802 20.1494 195.003 20.4035 195.083 20.6709L197.41 27.0488L198.693 14.7744C198.747 14.293 198.934 13.8919 199.255 13.571C199.603 13.2501 200.044 13.0896 200.579 13.0896H207.478C207.719 13.0896 207.919 13.1832 208.08 13.3704C208.267 13.5309 208.36 13.7314 208.36 13.9721V14.0924L204.871 39.6442C204.817 40.0453 204.617 40.4063 204.269 40.7272C203.948 41.0214 203.534 41.1685 203.025 41.1685H197.41C196.928 41.1685 196.527 41.0481 196.206 40.8074C195.912 40.5668 195.725 40.3261 195.645 40.0854L191.954 31.6217L188.264 40.0854ZM220.098 39.8046C219.75 40.7138 219.148 41.1685 218.293 41.1685H210.711C210.471 41.1685 210.257 41.0882 210.07 40.9278C209.909 40.7406 209.829 40.5267 209.829 40.286L209.869 40.0453L218.614 14.4133C218.721 14.0657 218.921 13.7582 219.215 13.4907C219.509 13.2233 219.911 13.0896 220.419 13.0896H231.57C232.078 13.0896 232.479 13.2233 232.773 13.4907C233.068 13.7582 233.268 14.0657 233.375 14.4133L242.12 40.0453L242.16 40.286C242.16 40.5267 242.066 40.7406 241.879 40.9278C241.719 41.0882 241.518 41.1685 241.277 41.1685H233.696C232.84 41.1685 232.239 40.7138 231.891 39.8046L230.888 36.9967H221.101L220.098 39.8046ZM225.994 20.8314L223.146 29.1748H228.842L225.994 20.8314ZM272.509 13.0896C272.803 13.0896 273.058 13.1966 273.271 13.4105C273.485 13.6245 273.592 13.8785 273.592 14.1727V40.0854C273.592 40.3796 273.485 40.6336 273.271 40.8476C273.058 41.0615 272.803 41.1685 272.509 41.1685H266.051C265.409 41.1685 264.875 40.8877 264.447 40.3261L255.702 29.1748V40.0854C255.702 40.3796 255.595 40.6336 255.381 40.8476C255.167 41.0615 254.913 41.1685 254.619 41.1685H247.158C246.864 41.1685 246.61 41.0615 246.396 40.8476C246.182 40.6336 246.075 40.3796 246.075 40.0854V14.1727C246.075 13.8785 246.182 13.6245 246.396 13.4105C246.61 13.1966 246.864 13.0896 247.158 13.0896H253.656C254.298 13.0896 254.82 13.357 255.221 13.8919L263.965 25.9658V14.1727C263.965 13.8785 264.072 13.6245 264.286 13.4105C264.5 13.1966 264.754 13.0896 265.048 13.0896H272.509ZM288.258 39.8046C287.91 40.7138 287.309 41.1685 286.453 41.1685H278.872C278.631 41.1685 278.417 41.0882 278.23 40.9278C278.069 40.7406 277.989 40.5267 277.989 40.286L278.029 40.0453L286.774 14.4133C286.881 14.0657 287.081 13.7582 287.375 13.4907C287.67 13.2233 288.071 13.0896 288.579 13.0896H299.73C300.238 13.0896 300.639 13.2233 300.933 13.4907C301.228 13.7582 301.428 14.0657 301.535 14.4133L310.28 40.0453L310.32 40.286C310.32 40.5267 310.226 40.7406 310.039 40.9278C309.879 41.0882 309.678 41.1685 309.437 41.1685H301.856C301 41.1685 300.399 40.7138 300.051 39.8046L299.048 36.9967H289.261L288.258 39.8046ZM294.154 20.8314L291.306 29.1748H297.002L294.154 20.8314Z" fill="#FFDF3A"/>
<path d="M91.76 23.2782L91.5994 24.6699L91.6081 24.6709L91.76 23.2782ZM98.8198 24.8426L98.2894 26.1392L98.2962 26.142L98.8198 24.8426ZM102.711 27.6906L101.553 28.4798L101.553 28.4798L102.711 27.6906ZM102.029 37.1572L100.972 36.2375L100.971 36.2389L102.029 37.1572ZM96.8944 40.4464L97.3471 41.7722L97.3543 41.7697L97.3615 41.7672L96.8944 40.4464ZM81.451 40.4063L80.9788 41.7252L81.451 40.4063ZM76.5974 37.3176L75.5122 38.2035L75.5167 38.209L75.5212 38.2145L76.5974 37.3176ZM75.2336 32.3838L74.3219 31.3202L74.2811 31.3552L74.243 31.3932L75.2336 32.3838ZM85.5024 32.6646L84.5118 33.6552L84.5268 33.6702L84.5423 33.6847L85.5024 32.6646ZM87.0267 33.5471L86.6418 34.8941L86.6719 34.9026L86.7022 34.9099L87.0267 33.5471ZM92.6826 31.7821L91.842 32.9028L91.8935 32.9415L91.9484 32.9752L92.6826 31.7821ZM90.9176 31.1804L90.6091 32.5469L90.6342 32.5526L90.6595 32.5573L90.9176 31.1804ZM87.2273 30.6188L87.0648 32.0103L87.0676 32.0106L87.2273 30.6188ZM78.8036 27.8912L77.9805 29.0249L77.9908 29.0322L78.8036 27.8912ZM77.52 17.1009L76.4199 16.2335V16.2335L77.52 17.1009ZM82.1731 13.8518L81.6736 12.5429L81.6678 12.5451L82.1731 13.8518ZM96.5334 14.0122L95.9875 15.3024L95.9946 15.3054L96.0017 15.3083L96.5334 14.0122ZM101.307 17.2212L100.242 18.1311V18.1311L101.307 17.2212ZM102.671 21.6336L101.759 20.57L101.718 20.605L101.68 20.643L102.671 21.6336ZM92.121 21.3929L91.1787 22.4295L91.1938 22.4433L91.2093 22.4566L92.121 21.3929ZM91.0781 20.7511L90.5578 22.0518L90.5578 22.0518L91.0781 20.7511ZM87.5883 22.5963L87.13 23.9201L87.153 23.9281L87.1763 23.9353L87.5883 22.5963ZM91.6081 24.6709C94.4828 24.9845 96.6929 25.4861 98.2894 26.1392L99.3502 23.546C97.4169 22.7551 94.9203 22.2138 91.9119 21.8856L91.6081 24.6709ZM98.2962 26.142C99.9201 26.7964 100.954 27.6005 101.553 28.4798L103.868 26.9014C102.863 25.4274 101.303 24.3329 99.3434 23.5433L98.2962 26.142ZM101.553 28.4798C102.163 29.3734 102.513 30.5517 102.513 32.103H105.315C105.315 30.1244 104.863 28.3611 103.868 26.9014L101.553 28.4798ZM102.513 32.103C102.513 33.6925 102.006 35.05 100.972 36.2375L103.086 38.0769C104.566 36.3763 105.315 34.3643 105.315 32.103H102.513ZM100.971 36.2389C99.9334 37.4343 98.4458 38.4118 96.4273 39.1257L97.3615 41.7672C99.7287 40.93 101.664 39.7147 103.087 38.0754L100.971 36.2389ZM96.4417 39.1207C94.4218 39.8104 92.0788 40.1687 89.3933 40.1687V42.9705C92.3237 42.9705 94.9814 42.58 97.3471 41.7722L96.4417 39.1207ZM89.3933 40.1687C86.3715 40.1687 83.8942 39.793 81.9233 39.0874L80.9788 41.7252C83.3401 42.5706 86.1576 42.9705 89.3933 42.9705V40.1687ZM81.9233 39.0874C79.9076 38.3657 78.5339 37.4532 77.6736 36.4208L75.5212 38.2145C76.8002 39.7493 78.6623 40.8959 80.9788 41.7252L81.9233 39.0874ZM77.6826 36.4317C76.7974 35.3473 76.3938 34.2238 76.3938 33.0256H73.592C73.592 34.9294 74.2581 36.6673 75.5122 38.2035L77.6826 36.4317ZM76.3938 33.0256C76.3938 33.0318 76.3928 33.0818 76.3648 33.1565C76.3352 33.2354 76.2864 33.3122 76.2242 33.3744L74.243 31.3932C73.7733 31.8629 73.592 32.458 73.592 33.0256H76.3938ZM76.1453 33.4474C76.1106 33.4772 76.0639 33.5055 76.0107 33.5243C75.9591 33.5425 75.9233 33.544 75.9155 33.544V30.7422C75.3442 30.7422 74.7852 30.923 74.3219 31.3202L76.1453 33.4474ZM75.9155 33.544H84.1386V30.7422H75.9155V33.544ZM84.1386 33.544C84.3861 33.544 84.4649 33.6082 84.5118 33.6552L86.493 31.674C85.8446 31.0256 85.0143 30.7422 84.1386 30.7422V33.544ZM84.5423 33.6847C85.1483 34.2551 85.8505 34.6679 86.6418 34.8941L87.4116 32.2001C87.0798 32.1053 86.7658 31.9298 86.4626 31.6444L84.5423 33.6847ZM86.7022 34.9099C87.4211 35.081 88.337 35.1485 89.3933 35.1485V32.3467C88.4173 32.3467 87.7555 32.2805 87.3512 32.1843L86.7022 34.9099ZM89.3933 35.1485C90.7001 35.1485 91.8215 35.0527 92.6604 34.7967C93.4053 34.5693 94.6049 33.9742 94.6049 32.5844H91.8031C91.8031 32.3395 91.9243 32.1475 92.0197 32.0602C92.0758 32.0089 92.058 32.0511 91.8424 32.1169C91.411 32.2486 90.627 32.3467 89.3933 32.3467V35.1485ZM94.6049 32.5844C94.6049 31.6427 94.0498 30.9786 93.4168 30.589L91.9484 32.9752C91.9932 33.0028 91.9524 32.9886 91.8991 32.9066C91.8718 32.8646 91.8461 32.8119 91.828 32.7506C91.8099 32.6895 91.8031 32.6323 91.8031 32.5844H94.6049ZM93.5231 30.6614C92.923 30.2113 92.0513 29.9677 91.1758 29.8035L90.6595 32.5573C91.0454 32.6297 91.3372 32.7051 91.5486 32.7771C91.7711 32.853 91.8457 32.9055 91.842 32.9028L93.5231 30.6614ZM91.2262 29.8139C90.3217 29.6097 89.0313 29.4158 87.387 29.2271L87.0676 32.0106C88.6857 32.1963 89.8555 32.3768 90.6091 32.5469L91.2262 29.8139ZM87.3898 29.2274C83.8452 28.8134 81.2999 27.9494 79.6164 26.7502L77.9908 29.0322C80.2116 30.6141 83.2821 31.5685 87.0648 32.0103L87.3898 29.2274ZM79.6267 26.7575C78.064 25.623 77.2763 24.0667 77.2763 21.9144H74.4745C74.4745 24.8965 75.6389 27.3247 77.9806 29.0248L79.6267 26.7575ZM77.2763 21.9144C77.2763 20.4015 77.7241 19.1046 78.6201 17.9683L76.4199 16.2335C75.1231 17.8783 74.4745 19.7904 74.4745 21.9144H77.2763ZM78.6201 17.9683C79.5309 16.8131 80.8566 15.8628 82.6783 15.1584L81.6678 12.5451C79.4783 13.3918 77.7019 14.6076 76.4199 16.2335L78.6201 17.9683ZM82.6725 15.1606C84.5135 14.4581 86.6916 14.0894 89.2329 14.0894V11.2876C86.4259 11.2876 83.8974 11.6944 81.6736 12.5429L82.6725 15.1606ZM89.2329 14.0894C91.8681 14.0894 94.109 14.5076 95.9875 15.3024L97.0792 12.722C94.7861 11.7519 92.16 11.2876 89.2329 11.2876V14.0894ZM96.0017 15.3083C97.9477 16.1067 99.33 17.0639 100.242 18.1311L102.372 16.3114C101.091 14.8114 99.2908 13.6292 97.0651 12.7161L96.0017 15.3083ZM100.242 18.1311C101.202 19.2554 101.551 20.2013 101.551 20.9918H104.352C104.352 19.322 103.604 17.7542 102.372 16.3114L100.242 18.1311ZM101.551 20.9918C101.551 20.9602 101.557 20.8853 101.598 20.7913C101.64 20.6943 101.702 20.6192 101.759 20.57L103.582 22.6973C104.109 22.2462 104.352 21.629 104.352 20.9918H101.551ZM101.68 20.643C101.757 20.5662 101.843 20.5182 101.914 20.4931C101.979 20.4701 102.011 20.4734 101.989 20.4734V23.2752C102.54 23.2752 103.167 23.1188 103.661 22.6242L101.68 20.643ZM101.989 20.4734H93.3645V23.2752H101.989V20.4734ZM93.3645 20.4734C93.2736 20.4734 93.1764 20.4524 93.0327 20.3293L91.2093 22.4566C91.8144 22.9752 92.5462 23.2752 93.3645 23.2752V20.4734ZM93.0634 20.3564C92.6351 19.967 92.1413 19.6676 91.5984 19.4504L90.5578 22.0518C90.8171 22.1556 91.0186 22.284 91.1787 22.4295L93.0634 20.3564ZM91.5984 19.4504C90.9417 19.1878 90.1069 19.1096 89.2329 19.1096V21.9114C90.0169 21.9114 90.4122 21.9936 90.5578 22.0518L91.5984 19.4504ZM89.2329 19.1096C88.2817 19.1096 87.3851 19.2028 86.6771 19.4987C86.309 19.6525 85.9196 19.8908 85.6181 20.2687C85.2994 20.6683 85.1445 21.1435 85.1445 21.6336H87.9463C87.9463 21.7493 87.9033 21.8969 87.8085 22.0158C87.7311 22.1129 87.6775 22.1172 87.7574 22.0838C87.9452 22.0053 88.3924 21.9114 89.2329 21.9114V19.1096ZM85.1445 21.6336C85.1445 23.0337 86.3797 23.6604 87.13 23.9201L88.0465 21.2725C87.9274 21.2313 87.8468 21.1946 87.7962 21.1673C87.7446 21.1395 87.7383 21.1292 87.7563 21.1457C87.776 21.164 87.8272 21.2171 87.8727 21.3117C87.9207 21.4112 87.9463 21.5237 87.9463 21.6336H85.1445ZM87.1763 23.9353C88.0142 24.1931 89.5317 24.4313 91.5994 24.6699L91.9206 21.8866C89.8166 21.6438 88.5529 21.4274 88.0003 21.2574L87.1763 23.9353ZM134.464 38.6414L133.649 37.5021L133.644 37.506L134.464 38.6414ZM112.763 38.6414L111.943 39.7768L111.948 39.7806L112.763 38.6414ZM110.637 17.9834L109.501 17.1644L109.499 17.1675L110.637 17.9834ZM131.255 13.9721L130.751 15.2792L130.757 15.2812L131.255 13.9721ZM136.59 17.9432L135.459 18.7702L136.59 17.9432ZM120.625 32.8651L119.74 33.9512L119.75 33.959L119.76 33.9667L120.625 32.8651ZM126.602 32.8651L127.487 33.9512L127.491 33.9477L126.602 32.8651ZM126.602 21.433L125.694 22.4995L125.715 22.5175L125.737 22.5346L126.602 21.433ZM120.625 21.3929L119.76 20.2914L119.75 20.2991L119.74 20.3069L120.625 21.3929ZM137.155 29.5759C137.155 33.3275 135.927 35.8721 133.649 37.5022L135.28 39.7806C138.457 37.5063 139.957 34.0073 139.957 29.5759H137.155ZM133.644 37.506C131.253 39.2336 127.962 40.1687 123.634 40.1687V42.9705C128.345 42.9705 132.273 41.9534 135.285 39.7767L133.644 37.506ZM123.634 40.1687C119.307 40.1687 115.998 39.234 113.579 37.5022L111.948 39.7806C114.984 41.9531 118.922 42.9705 123.634 42.9705V40.1687ZM113.584 37.506C111.337 35.8817 110.113 33.3136 110.113 29.4957H107.311C107.311 33.9677 108.788 37.4968 111.943 39.7767L113.584 37.506ZM110.113 29.4957V24.7624H107.311V29.4957H110.113ZM110.113 24.7624C110.113 22.257 110.7 20.3015 111.776 18.7992L109.499 17.1675C108.008 19.2486 107.311 21.8125 107.311 24.7624H110.113ZM111.774 18.8024C112.912 17.2224 114.461 16.0469 116.471 15.2812L115.474 12.663C112.991 13.6088 110.983 15.1074 109.501 17.1644L111.774 18.8024ZM116.471 15.2812C118.531 14.4965 120.911 14.0894 123.634 14.0894V11.2876C120.634 11.2876 117.906 11.7362 115.474 12.663L116.471 15.2812ZM123.634 14.0894C126.357 14.0894 128.722 14.4966 130.751 15.2792L131.759 12.665C129.35 11.7361 126.633 11.2876 123.634 11.2876V14.0894ZM130.757 15.2812C132.772 16.049 134.322 17.2151 135.459 18.7702L137.721 17.1163C136.238 15.088 134.231 13.6067 131.754 12.663L130.757 15.2812ZM135.459 18.7702C136.559 20.2738 137.155 22.2128 137.155 24.6822H139.957C139.957 21.7497 139.242 19.1961 137.721 17.1163L135.459 18.7702ZM137.155 24.6822V29.5759H139.957V24.6822H137.155ZM118.141 30.338C118.141 31.7725 118.633 33.0484 119.74 33.9512L121.51 31.7791C121.174 31.5053 120.943 31.0965 120.943 30.338H118.141ZM119.76 33.9667C120.824 34.8031 122.164 35.1485 123.634 35.1485V32.3467C122.59 32.3467 121.924 32.1038 121.491 31.7636L119.76 33.9667ZM123.634 35.1485C125.101 35.1485 126.44 34.8044 127.487 33.9512L125.717 31.7791C125.32 32.1025 124.681 32.3467 123.634 32.3467V35.1485ZM127.491 33.9477C128.609 33.0295 129.126 31.7515 129.126 30.2979H126.324C126.324 31.0372 126.093 31.4707 125.713 31.7826L127.491 33.9477ZM129.126 30.2979V23.9601H126.324V30.2979H129.126ZM129.126 23.9601C129.126 22.5073 128.608 21.2277 127.468 20.3315L125.737 22.5346C126.094 22.815 126.324 23.2201 126.324 23.9601H129.126ZM127.511 20.3666C126.463 19.4739 125.114 19.1096 123.634 19.1096V21.9114C124.667 21.9114 125.298 22.162 125.694 22.4995L127.511 20.3666ZM123.634 19.1096C122.164 19.1096 120.824 19.455 119.76 20.2914L121.491 22.4945C121.924 22.1543 122.59 21.9114 123.634 21.9114V19.1096ZM119.74 20.3069C118.633 21.2097 118.141 22.4856 118.141 23.92H120.943C120.943 23.1616 121.174 22.7528 121.51 22.479L119.74 20.3069ZM118.141 23.92V30.338H120.943V23.92H118.141ZM171.553 40.8476L170.562 39.857L171.553 40.8476ZM156.791 13.4105L155.801 14.4011L155.801 14.4011L156.791 13.4105ZM157.112 32.9454H155.711V34.3463H157.112V32.9454ZM170.791 34.3463C170.764 34.3463 170.715 34.3405 170.658 34.3167C170.603 34.2933 170.571 34.2655 170.562 34.2569L172.543 32.2757C172.075 31.8074 171.468 31.5445 170.791 31.5445V34.3463ZM170.562 34.2569C170.554 34.2482 170.526 34.2165 170.502 34.1609C170.479 34.1045 170.473 34.0553 170.473 34.0284H173.275C173.275 33.351 173.012 32.744 172.543 32.2757L170.562 34.2569ZM170.473 34.0284V40.0854H173.275V34.0284H170.473ZM170.473 40.0854C170.473 40.0585 170.479 40.0093 170.502 39.9529C170.526 39.8973 170.554 39.8656 170.562 39.857L172.543 41.8381C173.012 41.3699 173.275 40.7628 173.275 40.0854H170.473ZM170.562 39.857C170.571 39.8483 170.603 39.8205 170.658 39.7971C170.715 39.7734 170.764 39.7676 170.791 39.7676V42.5694C171.468 42.5694 172.075 42.3064 172.543 41.8381L170.562 39.857ZM170.791 39.7676H147.365V42.5694H170.791V39.7676ZM147.365 39.7676C147.392 39.7676 147.441 39.7734 147.497 39.7971C147.553 39.8205 147.585 39.8483 147.593 39.857L145.612 41.8381C146.08 42.3064 146.687 42.5694 147.365 42.5694V39.7676ZM147.593 39.857C147.602 39.8656 147.63 39.8973 147.653 39.9529C147.677 40.0093 147.683 40.0585 147.683 40.0854H144.881C144.881 40.7628 145.144 41.3699 145.612 41.8381L147.593 39.857ZM147.683 40.0854V14.1727H144.881V40.0854H147.683ZM147.683 14.1727C147.683 14.1996 147.677 14.2487 147.653 14.3051C147.63 14.3608 147.602 14.3925 147.593 14.4011L145.612 12.4199C145.144 12.8882 144.881 13.4953 144.881 14.1727H147.683ZM147.593 14.4011C147.585 14.4097 147.553 14.4376 147.497 14.461C147.441 14.4847 147.392 14.4905 147.365 14.4905V11.6887C146.687 11.6887 146.08 11.9517 145.612 12.4199L147.593 14.4011ZM147.365 14.4905H156.029V11.6887H147.365V14.4905ZM156.029 14.4905C156.002 14.4905 155.953 14.4847 155.897 14.461C155.841 14.4376 155.809 14.4097 155.801 14.4011L157.782 12.4199C157.314 11.9517 156.707 11.6887 156.029 11.6887V14.4905ZM155.801 14.4011C155.792 14.3925 155.764 14.3608 155.741 14.3051C155.717 14.2487 155.711 14.1996 155.711 14.1727H158.513C158.513 13.4953 158.25 12.8882 157.782 12.4199L155.801 14.4011ZM155.711 14.1727V32.9454H158.513V14.1727H155.711ZM157.112 34.3463H170.791V31.5445H157.112V34.3463ZM188.264 40.0854L186.98 39.5255L186.955 39.583L186.935 39.6424L188.264 40.0854ZM187.662 40.8074L186.822 39.6867L186.798 39.7045L186.775 39.7232L187.662 40.8074ZM179.6 40.7272L178.609 41.7178L178.65 41.759L178.695 41.7966L179.6 40.7272ZM179.038 39.6442L180.427 39.459L180.426 39.4546L179.038 39.6442ZM175.548 14.0924H174.147V14.1877L174.16 14.282L175.548 14.0924ZM175.789 13.3704L176.78 14.361V14.361L175.789 13.3704ZM184.614 13.571L183.623 14.5616L183.643 14.5814L183.664 14.6004L184.614 13.571ZM185.215 14.7744L186.609 14.6286L186.608 14.6196L185.215 14.7744ZM186.499 27.0488L185.106 27.1945L187.815 27.5289L186.499 27.0488ZM188.826 20.6709L190.142 21.151L190.156 21.1126L190.167 21.0735L188.826 20.6709ZM189.387 19.9088L190.274 20.9931L190.284 20.985L189.387 19.9088ZM194.482 19.9088L193.539 20.9454L193.588 20.9898L193.641 21.0295L194.482 19.9088ZM195.083 20.6709L193.741 21.0735L193.753 21.1126L193.767 21.151L195.083 20.6709ZM197.41 27.0488L196.094 27.5289L198.803 27.1945L197.41 27.0488ZM198.693 14.7744L197.301 14.6196L197.3 14.6286L198.693 14.7744ZM199.255 13.571L198.305 12.5416L198.284 12.5606L198.264 12.5804L199.255 13.571ZM208.08 13.3704L207.016 14.2821L207.086 14.3639L207.168 14.4341L208.08 13.3704ZM208.36 14.0924L209.748 14.282L209.761 14.1877V14.0924H208.36ZM204.871 39.6442L203.483 39.4546L203.482 39.459L204.871 39.6442ZM204.269 40.7272L205.216 41.7599L205.219 41.7566L204.269 40.7272ZM196.206 40.8074L195.319 41.8917L195.342 41.9104L195.366 41.9282L196.206 40.8074ZM195.645 40.0854L196.974 39.6424L196.954 39.583L196.929 39.5255L195.645 40.0854ZM191.954 31.6217L193.239 31.0617L191.954 28.1166L190.67 31.0617L191.954 31.6217ZM186.935 39.6424C186.961 39.5632 186.991 39.533 186.977 39.5496C186.963 39.5669 186.918 39.6144 186.822 39.6867L188.503 41.9282C188.93 41.6082 189.384 41.155 189.593 40.5284L186.935 39.6424ZM186.775 39.7232C186.775 39.7236 186.773 39.725 186.769 39.7273C186.764 39.7297 186.754 39.7346 186.736 39.7403C186.699 39.7518 186.624 39.7676 186.499 39.7676V42.5694C187.216 42.5694 187.944 42.3867 188.549 41.8917L186.775 39.7232ZM186.499 39.7676H180.883V42.5694H186.499V39.7676ZM180.883 39.7676C180.666 39.7676 180.57 39.7129 180.505 39.6578L178.695 41.7966C179.325 42.3299 180.085 42.5694 180.883 42.5694V39.7676ZM180.59 39.7366C180.459 39.6054 180.435 39.5185 180.427 39.459L177.65 39.8293C177.749 40.5721 178.099 41.2072 178.609 41.7178L180.59 39.7366ZM180.426 39.4546L176.936 13.9029L174.16 14.282L177.65 39.8337L180.426 39.4546ZM176.949 14.0924V13.9721H174.147V14.0924H176.949ZM176.949 13.9721C176.949 14.0097 176.942 14.0784 176.909 14.1615C176.875 14.2462 176.827 14.314 176.78 14.361L174.798 12.3798C174.358 12.8202 174.147 13.3849 174.147 13.9721H176.949ZM176.78 14.361C176.766 14.3745 176.724 14.4113 176.651 14.4433C176.576 14.4763 176.498 14.4905 176.431 14.4905V11.6887C175.78 11.6887 175.22 11.9588 174.798 12.3798L176.78 14.361ZM176.431 14.4905H183.33V11.6887H176.431V14.4905ZM183.33 14.4905C183.565 14.4905 183.612 14.5499 183.623 14.5616L185.604 12.5804C184.974 11.9503 184.165 11.6887 183.33 11.6887V14.4905ZM183.664 14.6004C183.757 14.6866 183.806 14.7743 183.823 14.9291L186.608 14.6196C186.518 13.8117 186.166 13.0972 185.564 12.5416L183.664 14.6004ZM183.822 14.9201L185.106 27.1945L187.892 26.9031L186.609 14.6286L183.822 14.9201ZM187.815 27.5289L190.142 21.151L187.51 20.1908L185.183 26.5687L187.815 27.5289ZM190.167 21.0735C190.156 21.1125 190.144 21.1251 190.154 21.1108C190.166 21.0948 190.2 21.0538 190.274 20.993L188.5 18.8245C188.066 19.1798 187.669 19.6527 187.484 20.2684L190.167 21.0735ZM190.284 20.985C190.315 20.9588 190.384 20.9085 190.591 20.9085V18.1067C189.834 18.1067 189.101 18.3239 188.49 18.8326L190.284 20.985ZM190.591 20.9085H193.318V18.1067H190.591V20.9085ZM193.318 20.9085C193.43 20.9085 193.489 20.924 193.513 20.9323C193.533 20.9392 193.537 20.9436 193.539 20.9454L195.424 18.8722C194.82 18.3231 194.071 18.1067 193.318 18.1067V20.9085ZM193.641 21.0295C193.727 21.0937 193.763 21.1354 193.773 21.1479C193.781 21.1581 193.759 21.1335 193.741 21.0735L196.425 20.2684C196.228 19.6132 195.782 19.1327 195.322 18.788L193.641 21.0295ZM193.767 21.151L196.094 27.5289L198.726 26.5687L196.399 20.1908L193.767 21.151ZM198.803 27.1945L200.087 14.9201L197.3 14.6286L196.016 26.9031L198.803 27.1945ZM200.086 14.9291C200.107 14.7411 200.165 14.6418 200.245 14.5616L198.264 12.5804C197.703 13.1419 197.387 13.8449 197.301 14.6196L200.086 14.9291ZM200.205 14.6004C200.26 14.5499 200.346 14.4905 200.579 14.4905V11.6887C199.741 11.6887 198.945 11.9503 198.305 12.5416L200.205 14.6004ZM200.579 14.4905H207.478V11.6887H200.579V14.4905ZM207.478 14.4905C207.412 14.4905 207.317 14.4764 207.217 14.4293C207.116 14.3826 207.051 14.3226 207.016 14.2821L209.143 12.4587C208.724 11.9697 208.139 11.6887 207.478 11.6887V14.4905ZM207.168 14.4341C207.128 14.3993 207.068 14.3337 207.021 14.2336C206.974 14.1326 206.96 14.0383 206.96 13.9721H209.761C209.761 13.3111 209.48 12.7259 208.991 12.3068L207.168 14.4341ZM206.96 13.9721V14.0924H209.761V13.9721H206.96ZM206.972 13.9029L203.483 39.4546L206.259 39.8337L209.748 14.282L206.972 13.9029ZM203.482 39.459C203.479 39.483 203.469 39.5592 203.319 39.6978L205.219 41.7566C205.764 41.2534 206.156 40.6076 206.259 39.8293L203.482 39.459ZM203.322 39.6945C203.302 39.7128 203.246 39.7676 203.025 39.7676V42.5694C203.822 42.5694 204.594 42.3299 205.216 41.7599L203.322 39.6945ZM203.025 39.7676H197.41V42.5694H203.025V39.7676ZM197.41 39.7676C197.169 39.7676 197.08 39.7114 197.047 39.6867L195.366 41.9282C195.975 42.3849 196.688 42.5694 197.41 42.5694V39.7676ZM197.093 39.7232C197.008 39.6537 196.967 39.6067 196.951 39.5864C196.936 39.5668 196.955 39.5851 196.974 39.6424L194.316 40.5284C194.512 41.116 194.915 41.5613 195.319 41.8917L197.093 39.7232ZM196.929 39.5255L193.239 31.0617L190.67 32.1816L194.361 40.6453L196.929 39.5255ZM190.67 31.0617L186.98 39.5255L189.548 40.6453L193.239 32.1816L190.67 31.0617ZM220.098 39.8046L221.406 40.3049L221.412 40.2904L221.417 40.2758L220.098 39.8046ZM210.07 40.9278L209.006 41.8395L209.076 41.9213L209.158 41.9914L210.07 40.9278ZM209.829 40.286L208.447 40.0557L208.428 40.17V40.286H209.829ZM209.869 40.0453L208.543 39.593L208.506 39.7017L208.487 39.815L209.869 40.0453ZM218.614 14.4133L219.939 14.8657L219.946 14.8456L219.953 14.8253L218.614 14.4133ZM219.215 13.4907L218.273 12.4542V12.4542L219.215 13.4907ZM232.773 13.4907L233.716 12.4542V12.4542L232.773 13.4907ZM233.375 14.4133L232.036 14.8253L232.042 14.8456L232.049 14.8657L233.375 14.4133ZM242.12 40.0453L243.501 39.815L243.483 39.7017L243.445 39.593L242.12 40.0453ZM242.16 40.286H243.561V40.17L243.542 40.0557L242.16 40.286ZM241.879 40.9278L242.87 41.9184V41.9184L241.879 40.9278ZM231.891 39.8046L230.572 40.2758L230.577 40.2904L230.582 40.3049L231.891 39.8046ZM230.888 36.9967L232.207 36.5256L231.875 35.5958H230.888V36.9967ZM221.101 36.9967V35.5958H220.113L219.781 36.5256L221.101 36.9967ZM225.994 20.8314L227.32 20.3788L225.994 16.4948L224.669 20.3788L225.994 20.8314ZM223.146 29.1748L221.821 28.7222L221.188 30.5757H223.146V29.1748ZM228.842 29.1748V30.5757H230.801L230.168 28.7222L228.842 29.1748ZM218.789 39.3043C218.682 39.5839 218.58 39.6806 218.541 39.7098C218.516 39.729 218.459 39.7676 218.293 39.7676V42.5694C218.982 42.5694 219.654 42.3806 220.23 41.9452C220.793 41.5198 221.166 40.9346 221.406 40.3049L218.789 39.3043ZM218.293 39.7676H210.711V42.5694H218.293V39.7676ZM210.711 39.7676C210.75 39.7676 210.804 39.7746 210.862 39.7966C210.92 39.8184 210.96 39.8462 210.981 39.8641L209.158 41.9914C209.592 42.3637 210.128 42.5694 210.711 42.5694V39.7676ZM211.133 40.0161C211.151 40.037 211.179 40.0769 211.201 40.135C211.223 40.1936 211.23 40.2474 211.23 40.286H208.428C208.428 40.8699 208.634 41.4052 209.006 41.8395L211.133 40.0161ZM211.211 40.5163L211.251 40.2756L208.487 39.815L208.447 40.0557L211.211 40.5163ZM211.195 40.4976L219.939 14.8657L217.288 13.961L208.543 39.593L211.195 40.4976ZM219.953 14.8253C219.979 14.7397 220.031 14.642 220.158 14.5273L218.273 12.4542C217.811 12.8743 217.462 13.3917 217.275 14.0014L219.953 14.8253ZM220.158 14.5273C220.151 14.533 220.152 14.5281 220.18 14.5189C220.212 14.5082 220.286 14.4905 220.419 14.4905V11.6887C219.662 11.6887 218.891 11.8927 218.273 12.4542L220.158 14.5273ZM220.419 14.4905H231.57V11.6887H220.419V14.4905ZM231.57 14.4905C231.703 14.4905 231.777 14.5082 231.809 14.5189C231.836 14.5281 231.837 14.533 231.831 14.5273L233.716 12.4542C233.098 11.8927 232.326 11.6887 231.57 11.6887V14.4905ZM231.831 14.5273C231.957 14.6421 232.01 14.7397 232.036 14.8253L234.714 14.0014C234.526 13.3917 234.178 12.8743 233.716 12.4542L231.831 14.5273ZM232.049 14.8657L240.794 40.4976L243.445 39.593L234.701 13.961L232.049 14.8657ZM240.738 40.2756L240.778 40.5163L243.542 40.0557L243.501 39.815L240.738 40.2756ZM240.759 40.286C240.759 40.2191 240.773 40.141 240.806 40.0654C240.838 39.9924 240.875 39.9507 240.888 39.9372L242.87 41.9184C243.291 41.4973 243.561 40.9371 243.561 40.286H240.759ZM240.888 39.9372C240.935 39.8902 241.003 39.8415 241.088 39.8076C241.171 39.7744 241.24 39.7676 241.277 39.7676V42.5694C241.864 42.5694 242.429 42.3587 242.87 41.9184L240.888 39.9372ZM241.277 39.7676H233.696V42.5694H241.277V39.7676ZM233.696 39.7676C233.53 39.7676 233.473 39.729 233.447 39.7098C233.409 39.6806 233.306 39.5839 233.199 39.3043L230.582 40.3049C230.823 40.9346 231.195 41.5198 231.758 41.9452C232.335 42.3806 233.006 42.5694 233.696 42.5694V39.7676ZM233.21 39.3335L232.207 36.5256L229.569 37.4679L230.572 40.2758L233.21 39.3335ZM230.888 35.5958H221.101V38.3976H230.888V35.5958ZM219.781 36.5256L218.779 39.3335L221.417 40.2758L222.42 37.4679L219.781 36.5256ZM224.669 20.3788L221.821 28.7222L224.472 29.6273L227.32 21.2839L224.669 20.3788ZM223.146 30.5757H228.842V27.7739H223.146V30.5757ZM230.168 28.7222L227.32 20.3788L224.669 21.2839L227.517 29.6273L230.168 28.7222ZM273.271 40.8476L272.281 39.857L273.271 40.8476ZM264.447 40.3261L265.561 39.4771L265.555 39.4693L265.549 39.4616L264.447 40.3261ZM255.702 29.1748L256.805 28.3103L254.301 25.1181V29.1748H255.702ZM255.381 40.8476L256.372 41.8381V41.8381L255.381 40.8476ZM255.221 13.8919L256.355 13.0701L256.349 13.0607L256.342 13.0513L255.221 13.8919ZM263.965 25.9658L262.831 26.7875L265.366 30.2883V25.9658H263.965ZM264.286 13.4105L265.277 14.4011V14.4011L264.286 13.4105ZM272.509 14.4905C272.482 14.4905 272.433 14.4847 272.377 14.461C272.321 14.4376 272.289 14.4097 272.281 14.4011L274.262 12.4199C273.794 11.9517 273.187 11.6887 272.509 11.6887V14.4905ZM272.281 14.4011C272.272 14.3925 272.244 14.3608 272.221 14.3051C272.197 14.2487 272.191 14.1996 272.191 14.1727H274.993C274.993 13.4953 274.73 12.8882 274.262 12.4199L272.281 14.4011ZM272.191 14.1727V40.0854H274.993V14.1727H272.191ZM272.191 40.0854C272.191 40.0585 272.197 40.0093 272.221 39.9529C272.244 39.8973 272.272 39.8656 272.281 39.857L274.262 41.8381C274.73 41.3699 274.993 40.7628 274.993 40.0854H272.191ZM272.281 39.857C272.289 39.8483 272.321 39.8205 272.377 39.7971C272.433 39.7734 272.482 39.7676 272.509 39.7676V42.5694C273.187 42.5694 273.794 42.3064 274.262 41.8381L272.281 39.857ZM272.509 39.7676H266.051V42.5694H272.509V39.7676ZM266.051 39.7676C265.895 39.7676 265.754 39.7309 265.561 39.4771L263.332 41.1751C263.995 42.0444 264.924 42.5694 266.051 42.5694V39.7676ZM265.549 39.4616L256.805 28.3103L254.6 30.0392L263.344 41.1905L265.549 39.4616ZM254.301 29.1748V40.0854H257.103V29.1748H254.301ZM254.301 40.0854C254.301 40.0585 254.307 40.0093 254.331 39.9529C254.354 39.8973 254.382 39.8656 254.391 39.857L256.372 41.8381C256.84 41.3699 257.103 40.7628 257.103 40.0854H254.301ZM254.391 39.857C254.399 39.8483 254.431 39.8205 254.487 39.7971C254.543 39.7734 254.592 39.7676 254.619 39.7676V42.5694C255.296 42.5694 255.904 42.3064 256.372 41.8381L254.391 39.857ZM254.619 39.7676H247.158V42.5694H254.619V39.7676ZM247.158 39.7676C247.185 39.7676 247.234 39.7734 247.291 39.7971C247.346 39.8205 247.378 39.8483 247.387 39.857L245.405 41.8381C245.874 42.3064 246.481 42.5694 247.158 42.5694V39.7676ZM247.387 39.857C247.395 39.8656 247.423 39.8973 247.446 39.9529C247.47 40.0093 247.476 40.0585 247.476 40.0854H244.674C244.674 40.7628 244.937 41.3699 245.405 41.8381L247.387 39.857ZM247.476 40.0854V14.1727H244.674V40.0854H247.476ZM247.476 14.1727C247.476 14.1996 247.47 14.2487 247.446 14.3051C247.423 14.3608 247.395 14.3925 247.387 14.4011L245.405 12.4199C244.937 12.8882 244.674 13.4953 244.674 14.1727H247.476ZM247.387 14.4011C247.378 14.4097 247.346 14.4376 247.291 14.461C247.234 14.4847 247.185 14.4905 247.158 14.4905V11.6887C246.481 11.6887 245.874 11.9517 245.405 12.4199L247.387 14.4011ZM247.158 14.4905H253.656V11.6887H247.158V14.4905ZM253.656 14.4905C253.836 14.4905 253.951 14.5331 254.1 14.7324L256.342 13.0513C255.689 12.181 254.76 11.6887 253.656 11.6887V14.4905ZM254.086 14.7136L262.831 26.7875L265.1 25.144L256.355 13.0701L254.086 14.7136ZM265.366 25.9658V14.1727H262.564V25.9658H265.366ZM265.366 14.1727C265.366 14.1996 265.36 14.2487 265.337 14.3051C265.313 14.3608 265.285 14.3925 265.277 14.4011L263.296 12.4199C262.827 12.8882 262.564 13.4953 262.564 14.1727H265.366ZM265.277 14.4011C265.268 14.4097 265.236 14.4376 265.181 14.461C265.124 14.4847 265.075 14.4905 265.048 14.4905V11.6887C264.371 11.6887 263.764 11.9517 263.296 12.4199L265.277 14.4011ZM265.048 14.4905H272.509V11.6887H265.048V14.4905ZM288.258 39.8046L289.566 40.3049L289.572 40.2904L289.577 40.2758L288.258 39.8046ZM278.23 40.9278L277.166 41.8395L277.236 41.9213L277.318 41.9914L278.23 40.9278ZM277.989 40.286L276.607 40.0557L276.588 40.17V40.286H277.989ZM278.029 40.0453L276.703 39.593L276.666 39.7017L276.647 39.815L278.029 40.0453ZM286.774 14.4133L288.1 14.8657L288.106 14.8456L288.113 14.8253L286.774 14.4133ZM287.375 13.4907L286.433 12.4542V12.4542L287.375 13.4907ZM300.934 13.4907L301.876 12.4542V12.4542L300.934 13.4907ZM301.535 14.4133L300.196 14.8253L300.202 14.8456L300.209 14.8657L301.535 14.4133ZM310.28 40.0453L311.662 39.815L311.643 39.7017L311.606 39.593L310.28 40.0453ZM310.32 40.286H311.721V40.17L311.702 40.0557L310.32 40.286ZM310.039 40.9278L311.03 41.9184V41.9184L310.039 40.9278ZM300.051 39.8046L298.732 40.2758L298.737 40.2904L298.743 40.3049L300.051 39.8046ZM299.048 36.9967L300.367 36.5256L300.035 35.5958H299.048V36.9967ZM289.261 36.9967V35.5958H288.273L287.941 36.5256L289.261 36.9967ZM294.154 20.8314L295.48 20.3788L294.154 16.4948L292.829 20.3788L294.154 20.8314ZM291.306 29.1748L289.981 28.7222L289.348 30.5757H291.306V29.1748ZM297.002 29.1748V30.5757H298.961L298.328 28.7222L297.002 29.1748ZM286.949 39.3043C286.842 39.5839 286.74 39.6806 286.701 39.7098C286.676 39.729 286.619 39.7676 286.453 39.7676V42.5694C287.143 42.5694 287.814 42.3806 288.39 41.9452C288.954 41.5198 289.326 40.9346 289.566 40.3049L286.949 39.3043ZM286.453 39.7676H278.872V42.5694H286.453V39.7676ZM278.872 39.7676C278.91 39.7676 278.964 39.7746 279.022 39.7966C279.081 39.8184 279.121 39.8462 279.141 39.8641L277.318 41.9914C277.752 42.3637 278.288 42.5694 278.872 42.5694V39.7676ZM279.293 40.0161C279.311 40.037 279.339 40.0769 279.361 40.135C279.383 40.1936 279.39 40.2474 279.39 40.286H276.588C276.588 40.8699 276.794 41.4052 277.166 41.8395L279.293 40.0161ZM279.371 40.5163L279.411 40.2756L276.647 39.815L276.607 40.0557L279.371 40.5163ZM279.355 40.4976L288.1 14.8657L285.448 13.961L276.703 39.593L279.355 40.4976ZM288.113 14.8253C288.139 14.7397 288.192 14.642 288.318 14.5273L286.433 12.4542C285.971 12.8743 285.622 13.3917 285.435 14.0014L288.113 14.8253ZM288.318 14.5273C288.312 14.533 288.312 14.5281 288.34 14.5189C288.372 14.5082 288.446 14.4905 288.579 14.4905V11.6887C287.822 11.6887 287.051 11.8927 286.433 12.4542L288.318 14.5273ZM288.579 14.4905H299.73V11.6887H288.579V14.4905ZM299.73 14.4905C299.863 14.4905 299.937 14.5082 299.969 14.5189C299.997 14.5281 299.997 14.533 299.991 14.5273L301.876 12.4542C301.258 11.8927 300.487 11.6887 299.73 11.6887V14.4905ZM299.991 14.5273C300.117 14.6421 300.17 14.7397 300.196 14.8253L302.874 14.0014C302.687 13.3917 302.338 12.8743 301.876 12.4542L299.991 14.5273ZM300.209 14.8657L308.954 40.4976L311.606 39.593L302.861 13.961L300.209 14.8657ZM308.898 40.2756L308.938 40.5163L311.702 40.0557L311.662 39.815L308.898 40.2756ZM308.919 40.286C308.919 40.2191 308.933 40.141 308.966 40.0654C308.998 39.9924 309.035 39.9507 309.048 39.9372L311.03 41.9184C311.451 41.4973 311.721 40.9371 311.721 40.286H308.919ZM309.048 39.9372C309.096 39.8902 309.163 39.8415 309.248 39.8076C309.331 39.7744 309.4 39.7676 309.437 39.7676V42.5694C310.025 42.5694 310.589 42.3587 311.03 41.9184L309.048 39.9372ZM309.437 39.7676H301.856V42.5694H309.437V39.7676ZM301.856 39.7676C301.69 39.7676 301.633 39.729 301.608 39.7098C301.569 39.6806 301.466 39.5839 301.36 39.3043L298.743 40.3049C298.983 40.9346 299.355 41.5198 299.919 41.9452C300.495 42.3806 301.166 42.5694 301.856 42.5694V39.7676ZM301.37 39.3335L300.367 36.5256L297.729 37.4679L298.732 40.2758L301.37 39.3335ZM299.048 35.5958H289.261V38.3976H299.048V35.5958ZM287.941 36.5256L286.939 39.3335L289.577 40.2758L290.58 37.4679L287.941 36.5256ZM292.829 20.3788L289.981 28.7222L292.632 29.6273L295.48 21.2839L292.829 20.3788ZM291.306 30.5757H297.002V27.7739H291.306V30.5757ZM298.328 28.7222L295.48 20.3788L292.829 21.2839L295.677 29.6273L298.328 28.7222Z" fill="#9945FF" mask="url(#path-2-outside-1_38_1227)"/>
</g>
<defs>
<filter id="filter0_d_38_1227" x="74.9932" y="12.6885" width="235.327" height="30.0018" filterUnits="userSpaceOnUse" color-interpolation-filters="sRGB">
<feFlood flood-opacity="0" result="BackgroundImageFix"/>
<feColorMatrix in="SourceAlpha" type="matrix" values="0 0 0 0 0 0 0 0 0 0 0 0 0 0 0 0 0 0 127 0" result="hardAlpha"/>
<feOffset dy="1.12072"/>
<feComposite in2="hardAlpha" operator="out"/>
<feColorMatrix type="matrix" values="0 0 0 0 0.6 0 0 0 0 0.270588 0 0 0 0 1 0 0 0 1 0"/>
<feBlend mode="normal" in2="BackgroundImageFix" result="effect1_dropShadow_38_1227"/>
<feBlend mode="normal" in="SourceGraphic" in2="effect1_dropShadow_38_1227" result="shape"/>
</filter>
</defs>
</svg>
