<svg width="165" height="22" viewBox="0 0 165 22" fill="none" xmlns="http://www.w3.org/2000/svg">
<g filter="url(#filter0_d_38_1256)">
<mask id="path-1-outside-1_38_1256" maskUnits="userSpaceOnUse" x="-0.570312" y="-0.737305" width="167" height="23" fill="black">
<rect fill="white" x="-0.570312" y="-0.737305" width="167" height="23"/>
<path d="M12.2318 7.79684C14.2815 8.02044 15.9212 8.38379 17.151 8.8869C18.3995 9.39001 19.3032 10.0515 19.8622 10.8714C20.4212 11.6913 20.7007 12.7161 20.7007 13.9459C20.7007 15.2875 20.2628 16.4614 19.3871 17.4677C18.5299 18.4552 17.3374 19.2192 15.8094 19.7596C14.2815 20.2813 12.5392 20.5422 10.5827 20.5422C8.40257 20.5422 6.55785 20.272 5.04853 19.7316C3.53921 19.1913 2.41188 18.4739 1.66653 17.5795C0.921191 16.6664 0.54852 15.6695 0.54852 14.5888C0.54852 14.4024 0.60442 14.2534 0.716222 14.1416C0.846657 14.0298 1.00504 13.9739 1.19138 13.9739H6.9212C7.31251 13.9739 7.62928 14.095 7.87151 14.3372C8.18828 14.6354 8.54232 14.8403 8.93363 14.9521C9.32493 15.0453 9.87462 15.0919 10.5827 15.0919C12.3529 15.0919 13.238 14.8217 13.238 14.2813C13.238 14.0577 13.1169 13.8714 12.8746 13.7223C12.651 13.5546 12.2411 13.4149 11.6448 13.3031C11.0672 13.1726 10.21 13.0422 9.07338 12.9118C6.52058 12.6136 4.56405 11.9801 3.2038 11.0111C1.84355 10.0235 1.16343 8.63535 1.16343 6.84653C1.16343 5.57944 1.54542 4.46143 2.30939 3.49248C3.07337 2.52354 4.15412 1.76888 5.55163 1.2285C6.96778 0.68813 8.60754 0.417943 10.4709 0.417943C12.4088 0.417943 14.1044 0.725397 15.5579 1.3403C17.0113 1.93658 18.12 2.68192 18.884 3.57633C19.6479 4.47075 20.0299 5.34652 20.0299 6.20367C20.0299 6.39 19.9647 6.53907 19.8343 6.65087C19.7225 6.76267 19.5641 6.81857 19.3591 6.81857H13.3498C13.033 6.81857 12.7442 6.70677 12.4833 6.48317C12.2784 6.29683 12.0361 6.14777 11.7566 6.03597C11.4771 5.92416 11.0485 5.86826 10.4709 5.86826C9.22245 5.86826 8.59822 6.12913 8.59822 6.65087C8.59822 6.93038 8.84046 7.15398 9.32493 7.32168C9.8094 7.47075 10.7783 7.62914 12.2318 7.79684ZM44.8389 12.185C44.8389 15.036 43.8886 17.1416 41.988 18.5018C40.106 19.8621 37.5905 20.5422 34.4414 20.5422C31.2923 20.5422 28.7675 19.8621 26.8668 18.5018C24.9848 17.1416 24.0438 15.0173 24.0438 12.1291V8.831C24.0438 6.93038 24.4911 5.35584 25.3855 4.10739C26.2985 2.84031 27.5376 1.90863 29.1029 1.31235C30.6681 0.71608 32.4476 0.417943 34.4414 0.417943C36.4352 0.417943 38.2054 0.71608 39.7519 1.31235C41.3172 1.90863 42.5563 2.83099 43.4693 4.07944C44.3824 5.32789 44.8389 6.89311 44.8389 8.7751V12.185ZM31.5904 12.7161C31.5904 13.4801 31.842 14.067 32.3451 14.477C32.8668 14.8869 33.5656 15.0919 34.4414 15.0919C35.3172 15.0919 36.0066 14.8869 36.5097 14.477C37.0314 14.0484 37.2923 13.4521 37.2923 12.6881V8.27199C37.2923 7.50802 37.0314 6.92106 36.5097 6.51112C36.0066 6.08255 35.3172 5.86826 34.4414 5.86826C33.5656 5.86826 32.8668 6.07323 32.3451 6.48317C31.842 6.89311 31.5904 7.48007 31.5904 8.24404V12.7161ZM67.3001 14.5329C67.5051 14.5329 67.6821 14.6074 67.8311 14.7565C67.9802 14.9055 68.0547 15.0826 68.0547 15.2875V19.508C68.0547 19.713 67.9802 19.89 67.8311 20.0391C67.6821 20.1882 67.5051 20.2627 67.3001 20.2627H50.9771C50.7721 20.2627 50.5951 20.1882 50.446 20.0391C50.2969 19.89 50.2224 19.713 50.2224 19.508V1.45211C50.2224 1.24714 50.2969 1.07012 50.446 0.92105C50.5951 0.771981 50.7721 0.697446 50.9771 0.697446H57.0144C57.2193 0.697446 57.3963 0.771981 57.5454 0.92105C57.6945 1.07012 57.769 1.24714 57.769 1.45211V14.5329H67.3001ZM79.4755 19.508C79.4196 19.6757 79.2799 19.8434 79.0563 20.0111C78.8513 20.1788 78.5811 20.2627 78.2457 20.2627H74.3326C73.9786 20.2627 73.6805 20.1602 73.4382 19.9552C73.2146 19.7316 73.0842 19.4801 73.0469 19.2006L70.6153 1.39621V1.31235C70.6153 1.14465 70.6712 1.0049 70.783 0.8931C70.9134 0.762664 71.0625 0.697446 71.2302 0.697446H76.0376C76.4103 0.697446 76.7084 0.809248 76.932 1.03285C77.1743 1.25645 77.314 1.53596 77.3513 1.87136L78.2457 10.4242L79.8668 5.98006C79.9227 5.79373 80.0532 5.61671 80.2581 5.44901C80.4817 5.26267 80.7612 5.1695 81.0966 5.1695H82.9973C83.3327 5.1695 83.6028 5.26267 83.8078 5.44901C84.0314 5.61671 84.1712 5.79373 84.2271 5.98006L85.8482 10.4242L86.7426 1.87136C86.7799 1.53596 86.9103 1.25645 87.1339 1.03285C87.3761 0.809248 87.6836 0.697446 88.0563 0.697446H92.8637C93.0314 0.697446 93.1712 0.762664 93.283 0.8931C93.4134 1.0049 93.4786 1.14465 93.4786 1.31235V1.39621L91.047 19.2006C91.0097 19.4801 90.8699 19.7316 90.6277 19.9552C90.4041 20.1602 90.1153 20.2627 89.7612 20.2627H85.8482C85.5128 20.2627 85.2333 20.1788 85.0097 20.0111C84.8047 19.8434 84.6743 19.6757 84.6184 19.508L82.0469 13.6105L79.4755 19.508ZM101.657 19.3124C101.415 19.9459 100.996 20.2627 100.399 20.2627H95.1168C94.9491 20.2627 94.8 20.2068 94.6696 20.095C94.5578 19.9646 94.5019 19.8155 94.5019 19.6478L94.5298 19.4801L100.623 1.61981C100.698 1.37757 100.837 1.16329 101.042 0.97695C101.247 0.790614 101.527 0.697446 101.881 0.697446H109.651C110.005 0.697446 110.285 0.790614 110.489 0.97695C110.694 1.16329 110.834 1.37757 110.909 1.61981L117.002 19.4801L117.03 19.6478C117.03 19.8155 116.965 19.9646 116.834 20.095C116.722 20.2068 116.583 20.2627 116.415 20.2627H111.132C110.536 20.2627 110.117 19.9459 109.875 19.3124L109.176 17.3559H102.356L101.657 19.3124ZM105.766 6.09187L103.781 11.9055H107.75L105.766 6.09187ZM138.177 0.697446C138.382 0.697446 138.559 0.771981 138.708 0.92105C138.858 1.07012 138.932 1.24714 138.932 1.45211V19.508C138.932 19.713 138.858 19.89 138.708 20.0391C138.559 20.1882 138.382 20.2627 138.177 20.2627H133.677C133.23 20.2627 132.857 20.067 132.559 19.6757L126.466 11.9055V19.508C126.466 19.713 126.392 19.89 126.243 20.0391C126.094 20.1882 125.916 20.2627 125.712 20.2627H120.513C120.308 20.2627 120.131 20.1882 119.982 20.0391C119.833 19.89 119.758 19.713 119.758 19.508V1.45211C119.758 1.24714 119.833 1.07012 119.982 0.92105C120.131 0.771981 120.308 0.697446 120.513 0.697446H125.041C125.488 0.697446 125.851 0.883783 126.131 1.25645L132.224 9.66951V1.45211C132.224 1.24714 132.298 1.07012 132.448 0.92105C132.597 0.771981 132.774 0.697446 132.979 0.697446H138.177ZM149.151 19.3124C148.909 19.9459 148.489 20.2627 147.893 20.2627H142.611C142.443 20.2627 142.294 20.2068 142.163 20.095C142.052 19.9646 141.996 19.8155 141.996 19.6478L142.024 19.4801L148.117 1.61981C148.191 1.37757 148.331 1.16329 148.536 0.97695C148.741 0.790614 149.021 0.697446 149.375 0.697446H157.145C157.499 0.697446 157.778 0.790614 157.983 0.97695C158.188 1.16329 158.328 1.37757 158.403 1.61981L164.496 19.4801L164.524 19.6478C164.524 19.8155 164.458 19.9646 164.328 20.095C164.216 20.2068 164.076 20.2627 163.909 20.2627H158.626C158.03 20.2627 157.611 19.9459 157.368 19.3124L156.67 17.3559H149.85L149.151 19.3124ZM153.26 6.09187L151.275 11.9055H155.244L153.26 6.09187Z"/>
</mask>
<path d="M12.2318 7.79684C14.2815 8.02044 15.9212 8.38379 17.151 8.8869C18.3995 9.39001 19.3032 10.0515 19.8622 10.8714C20.4212 11.6913 20.7007 12.7161 20.7007 13.9459C20.7007 15.2875 20.2628 16.4614 19.3871 17.4677C18.5299 18.4552 17.3374 19.2192 15.8094 19.7596C14.2815 20.2813 12.5392 20.5422 10.5827 20.5422C8.40257 20.5422 6.55785 20.272 5.04853 19.7316C3.53921 19.1913 2.41188 18.4739 1.66653 17.5795C0.921191 16.6664 0.54852 15.6695 0.54852 14.5888C0.54852 14.4024 0.60442 14.2534 0.716222 14.1416C0.846657 14.0298 1.00504 13.9739 1.19138 13.9739H6.9212C7.31251 13.9739 7.62928 14.095 7.87151 14.3372C8.18828 14.6354 8.54232 14.8403 8.93363 14.9521C9.32493 15.0453 9.87462 15.0919 10.5827 15.0919C12.3529 15.0919 13.238 14.8217 13.238 14.2813C13.238 14.0577 13.1169 13.8714 12.8746 13.7223C12.651 13.5546 12.2411 13.4149 11.6448 13.3031C11.0672 13.1726 10.21 13.0422 9.07338 12.9118C6.52058 12.6136 4.56405 11.9801 3.2038 11.0111C1.84355 10.0235 1.16343 8.63535 1.16343 6.84653C1.16343 5.57944 1.54542 4.46143 2.30939 3.49248C3.07337 2.52354 4.15412 1.76888 5.55163 1.2285C6.96778 0.68813 8.60754 0.417943 10.4709 0.417943C12.4088 0.417943 14.1044 0.725397 15.5579 1.3403C17.0113 1.93658 18.12 2.68192 18.884 3.57633C19.6479 4.47075 20.0299 5.34652 20.0299 6.20367C20.0299 6.39 19.9647 6.53907 19.8343 6.65087C19.7225 6.76267 19.5641 6.81857 19.3591 6.81857H13.3498C13.033 6.81857 12.7442 6.70677 12.4833 6.48317C12.2784 6.29683 12.0361 6.14777 11.7566 6.03597C11.4771 5.92416 11.0485 5.86826 10.4709 5.86826C9.22245 5.86826 8.59822 6.12913 8.59822 6.65087C8.59822 6.93038 8.84046 7.15398 9.32493 7.32168C9.8094 7.47075 10.7783 7.62914 12.2318 7.79684ZM44.8389 12.185C44.8389 15.036 43.8886 17.1416 41.988 18.5018C40.106 19.8621 37.5905 20.5422 34.4414 20.5422C31.2923 20.5422 28.7675 19.8621 26.8668 18.5018C24.9848 17.1416 24.0438 15.0173 24.0438 12.1291V8.831C24.0438 6.93038 24.4911 5.35584 25.3855 4.10739C26.2985 2.84031 27.5376 1.90863 29.1029 1.31235C30.6681 0.71608 32.4476 0.417943 34.4414 0.417943C36.4352 0.417943 38.2054 0.71608 39.7519 1.31235C41.3172 1.90863 42.5563 2.83099 43.4693 4.07944C44.3824 5.32789 44.8389 6.89311 44.8389 8.7751V12.185ZM31.5904 12.7161C31.5904 13.4801 31.842 14.067 32.3451 14.477C32.8668 14.8869 33.5656 15.0919 34.4414 15.0919C35.3172 15.0919 36.0066 14.8869 36.5097 14.477C37.0314 14.0484 37.2923 13.4521 37.2923 12.6881V8.27199C37.2923 7.50802 37.0314 6.92106 36.5097 6.51112C36.0066 6.08255 35.3172 5.86826 34.4414 5.86826C33.5656 5.86826 32.8668 6.07323 32.3451 6.48317C31.842 6.89311 31.5904 7.48007 31.5904 8.24404V12.7161ZM67.3001 14.5329C67.5051 14.5329 67.6821 14.6074 67.8311 14.7565C67.9802 14.9055 68.0547 15.0826 68.0547 15.2875V19.508C68.0547 19.713 67.9802 19.89 67.8311 20.0391C67.6821 20.1882 67.5051 20.2627 67.3001 20.2627H50.9771C50.7721 20.2627 50.5951 20.1882 50.446 20.0391C50.2969 19.89 50.2224 19.713 50.2224 19.508V1.45211C50.2224 1.24714 50.2969 1.07012 50.446 0.92105C50.5951 0.771981 50.7721 0.697446 50.9771 0.697446H57.0144C57.2193 0.697446 57.3963 0.771981 57.5454 0.92105C57.6945 1.07012 57.769 1.24714 57.769 1.45211V14.5329H67.3001ZM79.4755 19.508C79.4196 19.6757 79.2799 19.8434 79.0563 20.0111C78.8513 20.1788 78.5811 20.2627 78.2457 20.2627H74.3326C73.9786 20.2627 73.6805 20.1602 73.4382 19.9552C73.2146 19.7316 73.0842 19.4801 73.0469 19.2006L70.6153 1.39621V1.31235C70.6153 1.14465 70.6712 1.0049 70.783 0.8931C70.9134 0.762664 71.0625 0.697446 71.2302 0.697446H76.0376C76.4103 0.697446 76.7084 0.809248 76.932 1.03285C77.1743 1.25645 77.314 1.53596 77.3513 1.87136L78.2457 10.4242L79.8668 5.98006C79.9227 5.79373 80.0532 5.61671 80.2581 5.44901C80.4817 5.26267 80.7612 5.1695 81.0966 5.1695H82.9973C83.3327 5.1695 83.6028 5.26267 83.8078 5.44901C84.0314 5.61671 84.1712 5.79373 84.2271 5.98006L85.8482 10.4242L86.7426 1.87136C86.7799 1.53596 86.9103 1.25645 87.1339 1.03285C87.3761 0.809248 87.6836 0.697446 88.0563 0.697446H92.8637C93.0314 0.697446 93.1712 0.762664 93.283 0.8931C93.4134 1.0049 93.4786 1.14465 93.4786 1.31235V1.39621L91.047 19.2006C91.0097 19.4801 90.8699 19.7316 90.6277 19.9552C90.4041 20.1602 90.1153 20.2627 89.7612 20.2627H85.8482C85.5128 20.2627 85.2333 20.1788 85.0097 20.0111C84.8047 19.8434 84.6743 19.6757 84.6184 19.508L82.0469 13.6105L79.4755 19.508ZM101.657 19.3124C101.415 19.9459 100.996 20.2627 100.399 20.2627H95.1168C94.9491 20.2627 94.8 20.2068 94.6696 20.095C94.5578 19.9646 94.5019 19.8155 94.5019 19.6478L94.5298 19.4801L100.623 1.61981C100.698 1.37757 100.837 1.16329 101.042 0.97695C101.247 0.790614 101.527 0.697446 101.881 0.697446H109.651C110.005 0.697446 110.285 0.790614 110.489 0.97695C110.694 1.16329 110.834 1.37757 110.909 1.61981L117.002 19.4801L117.03 19.6478C117.03 19.8155 116.965 19.9646 116.834 20.095C116.722 20.2068 116.583 20.2627 116.415 20.2627H111.132C110.536 20.2627 110.117 19.9459 109.875 19.3124L109.176 17.3559H102.356L101.657 19.3124ZM105.766 6.09187L103.781 11.9055H107.75L105.766 6.09187ZM138.177 0.697446C138.382 0.697446 138.559 0.771981 138.708 0.92105C138.858 1.07012 138.932 1.24714 138.932 1.45211V19.508C138.932 19.713 138.858 19.89 138.708 20.0391C138.559 20.1882 138.382 20.2627 138.177 20.2627H133.677C133.23 20.2627 132.857 20.067 132.559 19.6757L126.466 11.9055V19.508C126.466 19.713 126.392 19.89 126.243 20.0391C126.094 20.1882 125.916 20.2627 125.712 20.2627H120.513C120.308 20.2627 120.131 20.1882 119.982 20.0391C119.833 19.89 119.758 19.713 119.758 19.508V1.45211C119.758 1.24714 119.833 1.07012 119.982 0.92105C120.131 0.771981 120.308 0.697446 120.513 0.697446H125.041C125.488 0.697446 125.851 0.883783 126.131 1.25645L132.224 9.66951V1.45211C132.224 1.24714 132.298 1.07012 132.448 0.92105C132.597 0.771981 132.774 0.697446 132.979 0.697446H138.177ZM149.151 19.3124C148.909 19.9459 148.489 20.2627 147.893 20.2627H142.611C142.443 20.2627 142.294 20.2068 142.163 20.095C142.052 19.9646 141.996 19.8155 141.996 19.6478L142.024 19.4801L148.117 1.61981C148.191 1.37757 148.331 1.16329 148.536 0.97695C148.741 0.790614 149.021 0.697446 149.375 0.697446H157.145C157.499 0.697446 157.778 0.790614 157.983 0.97695C158.188 1.16329 158.328 1.37757 158.403 1.61981L164.496 19.4801L164.524 19.6478C164.524 19.8155 164.458 19.9646 164.328 20.095C164.216 20.2068 164.076 20.2627 163.909 20.2627H158.626C158.03 20.2627 157.611 19.9459 157.368 19.3124L156.67 17.3559H149.85L149.151 19.3124ZM153.26 6.09187L151.275 11.9055H155.244L153.26 6.09187Z" fill="#FFDF3A"/>
<path d="M12.2318 7.79684L12.1199 8.76657L12.1259 8.76722L12.2318 7.79684ZM17.151 8.8869L16.7814 9.79038L16.7862 9.79229L17.151 8.8869ZM19.8622 10.8714L19.0557 11.4213V11.4213L19.8622 10.8714ZM19.3871 17.4677L18.6507 16.8268L18.6499 16.8278L19.3871 17.4677ZM15.8094 19.7596L16.1249 20.6834L16.1349 20.6799L15.8094 19.7596ZM5.04853 19.7316L4.7195 20.6507L5.04853 19.7316ZM1.66653 17.5795L0.910314 18.1968L0.916639 18.2044L1.66653 17.5795ZM0.716222 14.1416L0.080956 13.4004L0.0524925 13.4248L0.025984 13.4513L0.716222 14.1416ZM7.87151 14.3372L7.18127 15.0275L7.19173 15.0379L7.2025 15.048L7.87151 14.3372ZM8.93363 14.9521L8.66546 15.8907L8.68637 15.8967L8.70753 15.9017L8.93363 14.9521ZM12.8746 13.7223L12.2889 14.5032L12.3248 14.5301L12.363 14.5537L12.8746 13.7223ZM11.6448 13.3031L11.4298 14.2552L11.4473 14.2592L11.4649 14.2625L11.6448 13.3031ZM9.07338 12.9118L8.96014 13.8813L8.96209 13.8815L9.07338 12.9118ZM3.2038 11.0111L2.63028 11.8011L2.63746 11.8062L3.2038 11.0111ZM2.30939 3.49248L1.54286 2.8881L1.54286 2.8881L2.30939 3.49248ZM5.55163 1.2285L5.20363 0.31649L5.19959 0.318051L5.55163 1.2285ZM15.5579 1.3403L15.1775 2.23935L15.1874 2.2434L15.5579 1.3403ZM18.884 3.57633L18.1417 4.21033L18.1417 4.21033L18.884 3.57633ZM19.8343 6.65087L19.199 5.90973L19.1705 5.93413L19.144 5.96063L19.8343 6.65087ZM12.4833 6.48317L11.8267 7.20546L11.8372 7.21504L11.8481 7.22431L12.4833 6.48317ZM11.7566 6.03597L11.3941 6.94229L11.3941 6.94229L11.7566 6.03597ZM9.32493 7.32168L9.00562 8.24412L9.02165 8.24967L9.03786 8.25466L9.32493 7.32168ZM12.1259 8.76722C14.129 8.98575 15.669 9.33527 16.7814 9.79037L17.5206 7.98343C16.1735 7.43232 14.4339 7.05513 12.3376 6.82645L12.1259 8.76722ZM16.7862 9.79229C17.9177 10.2483 18.638 10.8086 19.0557 11.4213L20.6687 10.3215C19.9684 9.29438 18.8813 8.53173 17.5159 7.98151L16.7862 9.79229ZM19.0557 11.4213C19.4803 12.044 19.7246 12.865 19.7246 13.9459H21.6769C21.6769 12.5672 21.3622 11.3385 20.6687 10.3215L19.0557 11.4213ZM19.7246 13.9459C19.7246 15.0535 19.3709 15.9994 18.6507 16.8268L20.1234 18.1085C21.1548 16.9235 21.6769 15.5216 21.6769 13.9459H19.7246ZM18.6499 16.8278C17.9269 17.6607 16.8904 18.3419 15.4839 18.8393L16.1349 20.6799C17.7843 20.0965 19.1329 19.2497 20.1243 18.1075L18.6499 16.8278ZM15.494 18.8358C14.0865 19.3164 12.4539 19.5661 10.5827 19.5661V21.5183C12.6246 21.5183 14.4764 21.2462 16.1248 20.6834L15.494 18.8358ZM10.5827 19.5661C8.47708 19.5661 6.75089 19.3043 5.37756 18.8126L4.7195 20.6507C6.36481 21.2397 8.32806 21.5183 10.5827 21.5183V19.5661ZM5.37756 18.8126C3.97306 18.3098 3.0159 17.6739 2.41643 16.9545L0.916639 18.2044C1.80785 19.2738 3.10536 20.0728 4.7195 20.6507L5.37756 18.8126ZM2.42271 16.9622C1.80585 16.2065 1.52466 15.4237 1.52466 14.5888H-0.427624C-0.427624 15.9153 0.0365294 17.1263 0.910353 18.1968L2.42271 16.9622ZM1.52466 14.5888C1.52466 14.5931 1.52394 14.628 1.50444 14.68C1.48381 14.735 1.44979 14.7885 1.40646 14.8318L0.025984 13.4513C-0.301287 13.7786 -0.427624 14.1933 -0.427624 14.5888H1.52466ZM1.35149 14.8827C1.32733 14.9034 1.29479 14.9232 1.25772 14.9363C1.22178 14.949 1.19684 14.95 1.19138 14.95V12.9977C0.793292 12.9977 0.403815 13.1237 0.080956 13.4004L1.35149 14.8827ZM1.19138 14.95H6.9212V12.9977H1.19138V14.95ZM6.9212 14.95C7.09363 14.95 7.14858 14.9948 7.18127 15.0275L8.56175 13.647C8.10997 13.1952 7.53138 12.9977 6.9212 12.9977V14.95ZM7.2025 15.048C7.62476 15.4455 8.11402 15.7332 8.66546 15.8907L9.20179 14.0135C8.97062 13.9475 8.75181 13.8252 8.54053 13.6264L7.2025 15.048ZM8.70753 15.9017C9.20844 16.021 9.84667 16.068 10.5827 16.068V14.1157C9.90257 14.1157 9.44142 14.0696 9.15972 14.0025L8.70753 15.9017ZM10.5827 16.068C11.4933 16.068 12.2746 16.0013 12.8592 15.8229C13.3782 15.6644 14.2141 15.2497 14.2141 14.2813H12.2618C12.2618 14.1107 12.3463 13.9769 12.4128 13.9161C12.4518 13.8803 12.4394 13.9098 12.2892 13.9556C11.9886 14.0474 11.4423 14.1157 10.5827 14.1157V16.068ZM14.2141 14.2813C14.2141 13.6252 13.8273 13.1624 13.3862 12.891L12.363 14.5537C12.3943 14.5729 12.3658 14.563 12.3287 14.5059C12.3097 14.4766 12.2917 14.4399 12.2791 14.3972C12.2665 14.3546 12.2618 14.3147 12.2618 14.2813H14.2141ZM13.4603 12.9414C13.0421 12.6278 12.4347 12.458 11.8247 12.3436L11.4649 14.2625C11.7339 14.3129 11.9372 14.3654 12.0845 14.4157C12.2395 14.4685 12.2915 14.5051 12.2889 14.5032L13.4603 12.9414ZM11.8598 12.3509C11.2296 12.2086 10.3304 12.0735 9.18466 11.942L8.96209 13.8815C10.0896 14.0109 10.9047 14.1367 11.4298 14.2552L11.8598 12.3509ZM9.18661 11.9422C6.71679 11.6538 4.94322 11.0517 3.77014 10.2161L2.63746 11.8062C4.18489 12.9085 6.32437 13.5735 8.96014 13.8813L9.18661 11.9422ZM3.7773 10.2212C2.68844 9.43067 2.13957 8.34627 2.13957 6.84653H0.187284C0.187284 8.92443 0.998667 10.6164 2.63031 11.801L3.7773 10.2212ZM2.13957 6.84653C2.13957 5.79235 2.45162 4.88867 3.07593 4.09687L1.54286 2.8881C0.63921 4.03419 0.187284 5.36654 0.187284 6.84653H2.13957ZM3.07593 4.09687C3.7106 3.29192 4.63431 2.62978 5.90368 2.13895L5.19959 0.318051C3.67392 0.907977 2.43614 1.75515 1.54286 2.8881L3.07593 4.09687ZM5.89963 2.14051C7.18243 1.65102 8.7001 1.39409 10.4709 1.39409V-0.5582C8.51498 -0.5582 6.75314 -0.274761 5.20363 0.316499L5.89963 2.14051ZM10.4709 1.39409C12.3071 1.39409 13.8685 1.68549 15.1775 2.2393L15.9382 0.441308C14.3404 -0.2347 12.5105 -0.5582 10.4709 -0.5582V1.39409ZM15.1874 2.2434C16.5433 2.79971 17.5065 3.4667 18.1417 4.21033L19.6262 2.94234C18.7334 1.89715 17.4792 1.07345 15.9284 0.437207L15.1874 2.2434ZM18.1417 4.21033C18.8109 4.99376 19.0538 5.65287 19.0538 6.20367H21.0061C21.0061 5.04018 20.485 3.94773 19.6262 2.94234L18.1417 4.21033ZM19.0538 6.20367C19.0538 6.18163 19.058 6.12947 19.0867 6.06396C19.1163 5.99636 19.159 5.944 19.199 5.90973L20.4695 7.39202C20.8362 7.07771 21.0061 6.64767 21.0061 6.20367H19.0538ZM19.144 5.96063C19.1976 5.9071 19.2572 5.87363 19.3067 5.85615C19.352 5.84017 19.3745 5.84243 19.3591 5.84243V7.79472C19.7429 7.79472 20.1799 7.68572 20.5245 7.34111L19.144 5.96063ZM19.3591 5.84243H13.3498V7.79472H19.3591V5.84243ZM13.3498 5.84243C13.2864 5.84243 13.2187 5.82782 13.1186 5.74203L11.8481 7.22431C12.2697 7.58572 12.7796 7.79472 13.3498 7.79472V5.84243ZM13.1399 5.76088C12.8415 5.48959 12.4975 5.28097 12.1191 5.12964L11.3941 6.94229C11.5748 7.01456 11.7152 7.10408 11.8267 7.20546L13.1399 5.76088ZM12.1191 5.12964C11.6616 4.94661 11.0799 4.89212 10.4709 4.89212V6.84441C11.0172 6.84441 11.2926 6.90171 11.3941 6.94229L12.1191 5.12964ZM10.4709 4.89212C9.80812 4.89212 9.18338 4.95707 8.69 5.16326C8.43355 5.27043 8.16216 5.43648 7.95214 5.6998C7.73002 5.97827 7.62208 6.30938 7.62208 6.65087H9.57437C9.57437 6.73149 9.54445 6.83434 9.47839 6.91716C9.42442 6.98483 9.38712 6.98783 9.44279 6.96457C9.57363 6.90989 9.88523 6.84441 10.4709 6.84441V4.89212ZM7.62208 6.65087C7.62208 7.62645 8.48282 8.06315 9.00562 8.24412L9.64424 6.39924C9.56124 6.37051 9.5051 6.34497 9.46979 6.32596C9.43385 6.30661 9.42949 6.29938 9.442 6.31093C9.45574 6.32362 9.4914 6.36061 9.52315 6.42655C9.55655 6.49592 9.57437 6.5743 9.57437 6.65087H7.62208ZM9.03786 8.25466C9.62172 8.43431 10.6791 8.6003 12.1199 8.76655L12.3437 6.82713C10.8776 6.65797 9.99709 6.50719 9.612 6.3887L9.03786 8.25466ZM41.988 18.5018L41.4199 17.708L41.4162 17.7107L41.988 18.5018ZM26.8668 18.5018L26.295 19.293L26.2987 19.2956L26.8668 18.5018ZM25.3855 4.10739L24.5935 3.53672L24.5919 3.5389L25.3855 4.10739ZM29.1029 1.31235L28.7554 0.40016L29.1029 1.31235ZM39.7519 1.31235L39.4008 2.22316L39.4044 2.22455L39.7519 1.31235ZM43.4693 4.07944L42.6814 4.65567V4.65567L43.4693 4.07944ZM32.3451 14.477L31.7285 15.2337L31.7352 15.2392L31.742 15.2445L32.3451 14.477ZM36.5097 14.477L37.1263 15.2337L37.1293 15.2313L36.5097 14.477ZM36.5097 6.51112L35.8767 7.2542L35.8914 7.26674L35.9066 7.27868L36.5097 6.51112ZM32.3451 6.48317L31.742 5.71561L31.7352 5.72096L31.7285 5.72643L32.3451 6.48317ZM43.8628 12.185C43.8628 14.7991 43.0069 16.5722 41.4199 17.708L42.5561 19.2956C44.7703 17.7109 45.8151 15.2728 45.8151 12.185H43.8628ZM41.4162 17.7107C39.7506 18.9145 37.457 19.5661 34.4414 19.5661V21.5183C37.7239 21.5183 40.4613 20.8097 42.5598 19.293L41.4162 17.7107ZM34.4414 19.5661C31.4264 19.5661 29.121 18.9147 27.4349 17.708L26.2987 19.2956C28.4139 20.8094 31.1582 21.5183 34.4414 21.5183V19.5661ZM27.4386 17.7107C25.8727 16.5789 25.02 14.7895 25.02 12.1291H23.0677C23.0677 15.2452 24.097 17.7043 26.295 19.293L27.4386 17.7107ZM25.02 12.1291V8.831H23.0677V12.1291H25.02ZM25.02 8.831C25.02 7.08523 25.429 5.72269 26.179 4.67588L24.5919 3.5389C23.5531 4.98899 23.0677 6.77553 23.0677 8.831H25.02ZM26.1774 4.67806C26.9707 3.57717 28.05 2.75804 29.4504 2.22455L28.7554 0.40016C27.0253 1.05922 25.6263 2.10344 24.5935 3.53672L26.1774 4.67806ZM29.4504 2.22455C30.8857 1.67776 32.5443 1.39409 34.4414 1.39409V-0.5582C32.3509 -0.5582 30.4505 -0.245598 28.7554 0.40016L29.4504 2.22455ZM34.4414 1.39409C36.3388 1.39409 37.9864 1.67786 39.4008 2.22315L40.1031 0.401558C38.4243 -0.245694 36.5315 -0.5582 34.4414 -0.5582V1.39409ZM39.4044 2.22455C40.8087 2.75952 41.8889 3.57204 42.6814 4.65567L44.2573 3.5032C43.2237 2.08994 41.8256 1.05774 40.0995 0.40016L39.4044 2.22455ZM42.6814 4.65567C43.4476 5.70333 43.8628 7.05444 43.8628 8.7751H45.8151C45.8151 6.73177 45.3172 4.95245 44.2573 3.5032L42.6814 4.65567ZM43.8628 8.7751V12.185H45.8151V8.7751H43.8628ZM30.6143 12.7161C30.6143 13.7156 30.9565 14.6047 31.7285 15.2337L32.9617 13.7202C32.7275 13.5294 32.5666 13.2446 32.5666 12.7161H30.6143ZM31.742 15.2445C32.4838 15.8273 33.417 16.068 34.4414 16.068V14.1157C33.7142 14.1157 33.2499 13.9465 32.9482 13.7094L31.742 15.2445ZM34.4414 16.068C35.4634 16.068 36.3966 15.8283 37.1263 15.2337L35.8931 13.7202C35.6166 13.9456 35.1709 14.1157 34.4414 14.1157V16.068ZM37.1293 15.2313C37.9082 14.5915 38.2685 13.701 38.2685 12.6881H36.3162C36.3162 13.2033 36.1547 13.5053 35.8901 13.7227L37.1293 15.2313ZM38.2685 12.6881V8.27199H36.3162V12.6881H38.2685ZM38.2685 8.27199C38.2685 7.25968 37.9076 6.36805 37.1128 5.74356L35.9066 7.27868C36.1553 7.47407 36.3162 7.75635 36.3162 8.27199H38.2685ZM37.1427 5.76804C36.4125 5.14602 35.4729 4.89212 34.4414 4.89212V6.84441C35.1615 6.84441 35.6007 7.01908 35.8767 7.2542L37.1427 5.76804ZM34.4414 4.89212C33.417 4.89212 32.4838 5.1328 31.742 5.71561L32.9482 7.25073C33.2499 7.01366 33.7142 6.84441 34.4414 6.84441V4.89212ZM31.7285 5.72643C30.9565 6.35549 30.6143 7.24454 30.6143 8.24404H32.5666C32.5666 7.71559 32.7275 7.43073 32.9617 7.23991L31.7285 5.72643ZM30.6143 8.24404V12.7161H32.5666V8.24404H30.6143ZM57.5454 0.92105L56.8552 1.61129V1.61129L57.5454 0.92105ZM57.769 14.5329H56.7929V15.509H57.769V14.5329ZM67.3001 15.509C67.2813 15.509 67.2471 15.505 67.2078 15.4884C67.169 15.4721 67.1469 15.4527 67.1409 15.4467L68.5214 14.0662C68.1951 13.7399 67.7721 13.5567 67.3001 13.5567V15.509ZM67.1409 15.4467C67.1349 15.4407 67.1155 15.4186 67.0992 15.3798C67.0826 15.3405 67.0786 15.3063 67.0786 15.2875H69.0309C69.0309 14.8155 68.8477 14.3925 68.5214 14.0662L67.1409 15.4467ZM67.0786 15.2875V19.508H69.0309V15.2875H67.0786ZM67.0786 19.508C67.0786 19.4893 67.0826 19.455 67.0992 19.4157C67.1155 19.377 67.1349 19.3549 67.1409 19.3489L68.5214 20.7293C68.8477 20.403 69.0309 19.98 69.0309 19.508H67.0786ZM67.1409 19.3489C67.1469 19.3428 67.169 19.3235 67.2078 19.3071C67.2471 19.2906 67.2813 19.2866 67.3001 19.2866V21.2388C67.7721 21.2388 68.1951 21.0556 68.5214 20.7293L67.1409 19.3489ZM67.3001 19.2866H50.9771V21.2388H67.3001V19.2866ZM50.9771 19.2866C50.9958 19.2866 51.0301 19.2906 51.0694 19.3071C51.1081 19.3235 51.1302 19.3428 51.1363 19.3489L49.7558 20.7293C50.0821 21.0556 50.5051 21.2388 50.9771 21.2388V19.2866ZM51.1363 19.3489C51.1423 19.3549 51.1616 19.377 51.178 19.4157C51.1945 19.455 51.1986 19.4893 51.1986 19.508H49.2463C49.2463 19.98 49.4295 20.403 49.7558 20.7293L51.1363 19.3489ZM51.1986 19.508V1.45211H49.2463V19.508H51.1986ZM51.1986 1.45211C51.1986 1.47087 51.1945 1.50512 51.178 1.54441C51.1616 1.58317 51.1423 1.60528 51.1363 1.61129L49.7558 0.230813C49.4295 0.557102 49.2463 0.980101 49.2463 1.45211H51.1986ZM51.1363 1.61129C51.1302 1.6173 51.1081 1.63668 51.0694 1.653C51.0301 1.66954 50.9958 1.67359 50.9771 1.67359V-0.278697C50.5051 -0.278697 50.0821 -0.0954774 49.7558 0.230813L51.1363 1.61129ZM50.9771 1.67359H57.0144V-0.278697H50.9771V1.67359ZM57.0144 1.67359C56.9956 1.67359 56.9613 1.66954 56.922 1.653C56.8833 1.63668 56.8612 1.6173 56.8552 1.61129L58.2356 0.230813C57.9094 -0.0954773 57.4864 -0.278697 57.0144 -0.278697V1.67359ZM56.8552 1.61129C56.8492 1.60528 56.8298 1.58317 56.8135 1.54442C56.7969 1.50512 56.7929 1.47087 56.7929 1.45211H58.7452C58.7452 0.980101 58.5619 0.557101 58.2356 0.230812L56.8552 1.61129ZM56.7929 1.45211V14.5329H58.7452V1.45211H56.7929ZM57.769 15.509H67.3001V13.5567H57.769V15.509ZM79.4755 19.508L78.5807 19.1179L78.5633 19.1579L78.5495 19.1994L79.4755 19.508ZM79.0563 20.0111L78.4706 19.2302L78.4541 19.2426L78.4381 19.2556L79.0563 20.0111ZM73.4382 19.9552L72.748 20.6455L72.7767 20.6742L72.8077 20.7004L73.4382 19.9552ZM73.0469 19.2006L74.0145 19.0716L74.0141 19.0685L73.0469 19.2006ZM70.6152 1.39621H69.6391V1.46256L69.6481 1.5283L70.6152 1.39621ZM70.783 0.8931L71.4732 1.58334V1.58334L70.783 0.8931ZM76.932 1.03285L76.2418 1.72309L76.2556 1.73689L76.2699 1.75013L76.932 1.03285ZM77.3513 1.87136L78.3222 1.76983L78.3215 1.76356L77.3513 1.87136ZM78.2457 10.4242L77.2748 10.5257L79.1627 10.7587L78.2457 10.4242ZM79.8668 5.98006L80.7839 6.31458L80.7936 6.28783L80.8018 6.26056L79.8668 5.98006ZM80.2581 5.44901L80.8763 6.20453L80.883 6.1989L80.2581 5.44901ZM83.8078 5.44901L83.1512 6.17129L83.1853 6.20228L83.2221 6.22992L83.8078 5.44901ZM84.2271 5.98006L83.2921 6.26056L83.3003 6.28783L83.31 6.31458L84.2271 5.98006ZM85.8482 10.4242L84.9312 10.7587L86.819 10.5257L85.8482 10.4242ZM86.7426 1.87136L85.7724 1.76356L85.7718 1.76983L86.7426 1.87136ZM87.1339 1.03285L86.4718 0.315578L86.4575 0.328815L86.4437 0.342614L87.1339 1.03285ZM93.283 0.8931L92.5418 1.52836L92.5907 1.58538L92.6477 1.63425L93.283 0.8931ZM93.4786 1.39621L94.4458 1.5283L94.4548 1.46256V1.39621H93.4786ZM91.047 19.2006L90.0798 19.0685L90.0794 19.0716L91.047 19.2006ZM90.6277 19.9552L91.2873 20.6748L91.2898 20.6725L90.6277 19.9552ZM85.0097 20.0111L84.3916 20.7666L84.4075 20.7797L84.424 20.7921L85.0097 20.0111ZM84.6184 19.508L85.5444 19.1994L85.5306 19.1579L85.5132 19.1179L84.6184 19.508ZM82.0469 13.6105L82.9417 13.2204L82.0469 11.1682L81.1522 13.2204L82.0469 13.6105ZM78.5495 19.1994C78.5679 19.1441 78.5885 19.1231 78.5789 19.1347C78.5688 19.1468 78.5378 19.1798 78.4706 19.2302L79.6419 20.7921C79.9393 20.5691 80.256 20.2533 80.4016 19.8167L78.5495 19.1994ZM78.4381 19.2556C78.4378 19.256 78.4366 19.2569 78.4336 19.2585C78.4304 19.2602 78.4233 19.2636 78.4106 19.2675C78.3847 19.2756 78.333 19.2866 78.2457 19.2866V21.2388C78.7451 21.2388 79.2528 21.1116 79.6744 20.7666L78.4381 19.2556ZM78.2457 19.2866H74.3326V21.2388H78.2457V19.2866ZM74.3326 19.2866C74.181 19.2866 74.1141 19.2485 74.0688 19.2101L72.8077 20.7004C73.2468 21.072 73.7763 21.2388 74.3326 21.2388V19.2866ZM74.1285 19.265C74.0371 19.1736 74.02 19.113 74.0145 19.0716L72.0794 19.3296C72.1484 19.8472 72.3922 20.2897 72.748 20.6455L74.1285 19.265ZM74.0141 19.0685L71.5824 1.26411L69.6481 1.5283L72.0798 19.3327L74.0141 19.0685ZM71.5914 1.39621V1.31235H69.6391V1.39621H71.5914ZM71.5914 1.31235C71.5914 1.33853 71.5867 1.38642 71.5635 1.4443C71.5399 1.50331 71.506 1.55057 71.4732 1.58334L70.0927 0.202861C69.7859 0.509692 69.6391 0.903192 69.6391 1.31235H71.5914ZM71.4732 1.58334C71.4638 1.59277 71.4347 1.6184 71.3838 1.64066C71.3312 1.6637 71.2767 1.67359 71.2302 1.67359V-0.278697C70.7765 -0.278697 70.3861 -0.0905337 70.0927 0.202863L71.4732 1.58334ZM71.2302 1.67359H76.0376V-0.278697H71.2302V1.67359ZM76.0376 1.67359C76.2011 1.67359 76.2337 1.71495 76.2418 1.72309L77.6223 0.342614C77.1832 -0.0964588 76.6194 -0.278697 76.0376 -0.278697V1.67359ZM76.2699 1.75013C76.335 1.8102 76.3691 1.87131 76.3811 1.97916L78.3215 1.76356C78.2589 1.2006 78.0135 0.702711 77.5941 0.315577L76.2699 1.75013ZM76.3804 1.97289L77.2748 10.5257L79.2165 10.3226L78.3221 1.76983L76.3804 1.97289ZM79.1627 10.7587L80.7839 6.31458L78.9498 5.64555L77.3287 10.0897L79.1627 10.7587ZM80.8018 6.26056C80.7936 6.28774 80.7851 6.29651 80.7924 6.2866C80.8007 6.27541 80.8244 6.24689 80.8763 6.2045L79.64 4.69351C79.3374 4.94106 79.0605 5.27058 78.9318 5.69957L80.8018 6.26056ZM80.883 6.1989C80.9049 6.18065 80.9529 6.14565 81.0966 6.14565V4.19336C80.5696 4.19336 80.0585 4.34469 79.6332 4.69911L80.883 6.1989ZM81.0966 6.14565H82.9973V4.19336H81.0966V6.14565ZM82.9973 6.14565C83.075 6.14565 83.1165 6.15645 83.1332 6.1622C83.1472 6.167 83.1499 6.17009 83.1512 6.17129L84.4644 4.72672C84.0436 4.34411 83.5216 4.19336 82.9973 4.19336V6.14565ZM83.2221 6.22992C83.2818 6.27468 83.3073 6.30371 83.3142 6.31241C83.3198 6.31957 83.3046 6.30238 83.2921 6.26056L85.162 5.69957C85.0251 5.24303 84.7137 4.90825 84.3935 4.66809L83.2221 6.22992ZM83.31 6.31458L84.9312 10.7587L86.7652 10.0897L85.1441 5.64555L83.31 6.31458ZM86.819 10.5257L87.7135 1.97289L85.7718 1.76983L84.8773 10.3226L86.819 10.5257ZM87.7128 1.97916C87.7273 1.84817 87.7682 1.77902 87.8242 1.72309L86.4437 0.342614C86.0524 0.733887 85.8324 1.22374 85.7724 1.76356L87.7128 1.97916ZM87.796 1.75012C87.8341 1.71496 87.8945 1.67359 88.0563 1.67359V-0.278697C87.4727 -0.278697 86.9182 -0.0964648 86.4718 0.315578L87.796 1.75012ZM88.0563 1.67359H92.8637V-0.278697H88.0563V1.67359ZM92.8637 1.67359C92.8176 1.67359 92.7519 1.66376 92.6815 1.63092C92.6118 1.59838 92.566 1.55658 92.5418 1.52836L94.0241 0.257836C93.7321 -0.0828941 93.3243 -0.278697 92.8637 -0.278697V1.67359ZM92.6477 1.63425C92.6195 1.61006 92.5777 1.56431 92.5452 1.49456C92.5123 1.42419 92.5025 1.3585 92.5025 1.31235H94.4548C94.4548 0.851799 94.259 0.444007 93.9183 0.151954L92.6477 1.63425ZM92.5025 1.31235V1.39621H94.4548V1.31235H92.5025ZM92.5115 1.26411L90.0798 19.0685L92.0141 19.3327L94.4458 1.5283L92.5115 1.26411ZM90.0794 19.0716C90.0772 19.0883 90.0702 19.1414 89.9656 19.238L91.2898 20.6725C91.6696 20.3219 91.9422 19.8719 92.0145 19.3296L90.0794 19.0716ZM89.9681 19.2357C89.9542 19.2484 89.9146 19.2866 89.7612 19.2866V21.2388C90.316 21.2388 90.854 21.072 91.2873 20.6748L89.9681 19.2357ZM89.7612 19.2866H85.8482V21.2388H89.7612V19.2866ZM85.8482 19.2866C85.6806 19.2866 85.6183 19.2474 85.5954 19.2302L84.424 20.7921C84.8483 21.1103 85.345 21.2388 85.8482 21.2388V19.2866ZM85.6278 19.2556C85.5686 19.2072 85.5397 19.1745 85.5286 19.1603C85.5181 19.1467 85.5311 19.1594 85.5444 19.1994L83.6923 19.8167C83.8288 20.2261 84.1102 20.5364 84.3916 20.7666L85.6278 19.2556ZM85.5132 19.1179L82.9417 13.2204L81.1522 14.0007L83.7236 19.8982L85.5132 19.1179ZM81.1522 13.2204L78.5807 19.1179L80.3703 19.8982L82.9417 14.0007L81.1522 13.2204ZM101.657 19.3124L102.569 19.661L102.573 19.6509L102.576 19.6407L101.657 19.3124ZM94.6696 20.095L93.9285 20.7303L93.9773 20.7873L94.0343 20.8361L94.6696 20.095ZM94.5019 19.6478L93.539 19.4873L93.5257 19.567V19.6478H94.5019ZM94.5298 19.4801L93.606 19.1649L93.5801 19.2407L93.567 19.3196L94.5298 19.4801ZM100.623 1.61981L101.547 1.93499L101.552 1.921L101.556 1.90688L100.623 1.61981ZM101.042 0.97695L100.386 0.254661L100.386 0.254664L101.042 0.97695ZM110.489 0.97695L111.146 0.254662V0.254662L110.489 0.97695ZM110.909 1.61981L109.976 1.90688L109.98 1.921L109.985 1.93499L110.909 1.61981ZM117.002 19.4801L117.965 19.3196L117.952 19.2407L117.926 19.1649L117.002 19.4801ZM117.03 19.6478H118.006V19.567L117.993 19.4873L117.03 19.6478ZM116.834 20.095L117.524 20.7852V20.7852L116.834 20.095ZM109.875 19.3124L108.955 19.6407L108.959 19.6509L108.963 19.661L109.875 19.3124ZM109.176 17.3559L110.095 17.0275L109.864 16.3797H109.176V17.3559ZM102.356 17.3559V16.3797H101.668L101.437 17.0275L102.356 17.3559ZM105.766 6.09187L106.69 5.77653L105.766 3.07016L104.842 5.77653L105.766 6.09187ZM103.781 11.9055L102.858 11.5902L102.417 12.8817H103.781V11.9055ZM107.75 11.9055V12.8817H109.115L108.674 11.5902L107.75 11.9055ZM100.745 18.9638C100.671 19.1586 100.599 19.226 100.573 19.2463C100.555 19.2597 100.515 19.2866 100.399 19.2866V21.2388C100.88 21.2388 101.348 21.1073 101.75 20.804C102.142 20.5075 102.401 20.0997 102.569 19.661L100.745 18.9638ZM100.399 19.2866H95.1168V21.2388H100.399V19.2866ZM95.1168 19.2866C95.1437 19.2866 95.1811 19.2915 95.222 19.3068C95.2625 19.322 95.2903 19.3414 95.3049 19.3538L94.0343 20.8361C94.337 21.0955 94.7099 21.2388 95.1168 21.2388V19.2866ZM95.4107 19.4597C95.4232 19.4743 95.4426 19.5021 95.4578 19.5426C95.4731 19.5834 95.478 19.6209 95.478 19.6478H93.5257C93.5257 20.0547 93.6691 20.4276 93.9285 20.7303L95.4107 19.4597ZM95.4648 19.8083L95.4927 19.6406L93.567 19.3196L93.539 19.4873L95.4648 19.8083ZM95.4537 19.7953L101.547 1.93499L99.6992 1.30463L93.606 19.1649L95.4537 19.7953ZM101.556 1.90688C101.574 1.8472 101.611 1.77917 101.699 1.69924L100.386 0.254664C100.064 0.547401 99.8207 0.907949 99.69 1.33274L101.556 1.90688ZM101.699 1.69924C101.695 1.7032 101.695 1.69977 101.714 1.69337C101.737 1.68588 101.788 1.67359 101.881 1.67359V-0.278697C101.354 -0.278697 100.816 -0.136568 100.386 0.254661L101.699 1.69924ZM101.881 1.67359H109.651V-0.278697H101.881V1.67359ZM109.651 1.67359C109.744 1.67359 109.795 1.68588 109.817 1.69337C109.837 1.69977 109.837 1.7032 109.833 1.69924L111.146 0.254662C110.716 -0.136568 110.178 -0.278697 109.651 -0.278697V1.67359ZM109.833 1.69924C109.921 1.77917 109.957 1.8472 109.976 1.90688L111.842 1.33274C111.711 0.907947 111.468 0.547399 111.146 0.254662L109.833 1.69924ZM109.985 1.93499L116.078 19.7953L117.926 19.1649L111.833 1.30463L109.985 1.93499ZM116.039 19.6406L116.067 19.8083L117.993 19.4873L117.965 19.3196L116.039 19.6406ZM116.054 19.6478C116.054 19.6012 116.064 19.5468 116.087 19.4941C116.109 19.4432 116.135 19.4142 116.144 19.4048L117.524 20.7852C117.818 20.4918 118.006 20.1015 118.006 19.6478H116.054ZM116.144 19.4048C116.177 19.372 116.224 19.338 116.283 19.3144C116.341 19.2913 116.389 19.2866 116.415 19.2866V21.2388C116.824 21.2388 117.218 21.0921 117.524 20.7852L116.144 19.4048ZM116.415 19.2866H111.132V21.2388H116.415V19.2866ZM111.132 19.2866C111.017 19.2866 110.977 19.2597 110.959 19.2463C110.932 19.226 110.861 19.1586 110.786 18.9638L108.963 19.661C109.131 20.0997 109.39 20.5075 109.782 20.8039C110.184 21.1073 110.652 21.2388 111.132 21.2388V19.2866ZM110.794 18.9841L110.095 17.0275L108.257 17.6842L108.955 19.6407L110.794 18.9841ZM109.176 16.3797H102.356V18.332H109.176V16.3797ZM101.437 17.0275L100.738 18.9841L102.576 19.6407L103.275 17.6842L101.437 17.0275ZM104.842 5.77653L102.858 11.5902L104.705 12.2209L106.69 6.4072L104.842 5.77653ZM103.781 12.8817H107.75V10.9294H103.781V12.8817ZM108.674 11.5902L106.69 5.77653L104.842 6.4072L106.827 12.2209L108.674 11.5902ZM132.559 19.6757L133.336 19.0841L133.327 19.0734L132.559 19.6757ZM126.466 11.9055L127.234 11.3032L125.49 9.07883V11.9055H126.466ZM126.243 20.0391L126.933 20.7293L126.243 20.0391ZM126.131 1.25645L126.921 0.683877L126.917 0.677283L126.912 0.67077L126.131 1.25645ZM132.224 9.66951L131.433 10.2421L133.2 12.6815V9.66951H132.224ZM132.448 0.92105L133.138 1.61129V1.61128L132.448 0.92105ZM138.177 1.67359C138.159 1.67359 138.124 1.66954 138.085 1.653C138.046 1.63668 138.024 1.6173 138.018 1.61129L139.399 0.230812C139.072 -0.0954769 138.649 -0.278697 138.177 -0.278697V1.67359ZM138.018 1.61129C138.012 1.60528 137.993 1.58317 137.976 1.54442C137.96 1.50512 137.956 1.47087 137.956 1.45211H139.908C139.908 0.980101 139.725 0.557101 139.399 0.230812L138.018 1.61129ZM137.956 1.45211V19.508H139.908V1.45211H137.956ZM137.956 19.508C137.956 19.4893 137.96 19.455 137.976 19.4157C137.993 19.377 138.012 19.3549 138.018 19.3489L139.399 20.7293C139.725 20.403 139.908 19.98 139.908 19.508H137.956ZM138.018 19.3489C138.024 19.3428 138.046 19.3235 138.085 19.3071C138.124 19.2906 138.159 19.2866 138.177 19.2866V21.2388C138.649 21.2388 139.072 21.0556 139.399 20.7293L138.018 19.3489ZM138.177 19.2866H133.677V21.2388H138.177V19.2866ZM133.677 19.2866C133.568 19.2866 133.471 19.261 133.336 19.0842L131.783 20.2673C132.244 20.8731 132.892 21.2388 133.677 21.2388V19.2866ZM133.327 19.0734L127.234 11.3032L125.698 12.5079L131.791 20.2781L133.327 19.0734ZM125.49 11.9055V19.508H127.442V11.9055H125.49ZM125.49 19.508C125.49 19.4893 125.494 19.455 125.511 19.4157C125.527 19.377 125.546 19.3549 125.552 19.3489L126.933 20.7293C127.259 20.403 127.442 19.98 127.442 19.508H125.49ZM125.552 19.3489C125.558 19.3428 125.58 19.3235 125.619 19.3071C125.659 19.2906 125.693 19.2866 125.712 19.2866V21.2388C126.184 21.2388 126.607 21.0556 126.933 20.7293L125.552 19.3489ZM125.712 19.2866H120.513V21.2388H125.712V19.2866ZM120.513 19.2866C120.532 19.2866 120.566 19.2906 120.605 19.3071C120.644 19.3235 120.666 19.3428 120.672 19.3489L119.291 20.7293C119.618 21.0556 120.041 21.2388 120.513 21.2388V19.2866ZM120.672 19.3489C120.678 19.3549 120.697 19.377 120.714 19.4157C120.73 19.455 120.734 19.4893 120.734 19.508H118.782C118.782 19.98 118.965 20.403 119.291 20.7293L120.672 19.3489ZM120.734 19.508V1.45211H118.782V19.508H120.734ZM120.734 1.45211C120.734 1.47087 120.73 1.50512 120.714 1.54441C120.697 1.58317 120.678 1.60528 120.672 1.61129L119.291 0.230813C118.965 0.557102 118.782 0.980101 118.782 1.45211H120.734ZM120.672 1.61129C120.666 1.6173 120.644 1.63668 120.605 1.653C120.566 1.66954 120.532 1.67359 120.513 1.67359V-0.278697C120.041 -0.278697 119.618 -0.0954772 119.291 0.230813L120.672 1.61129ZM120.513 1.67359H125.041V-0.278697H120.513V1.67359ZM125.041 1.67359C125.166 1.67359 125.246 1.70327 125.35 1.84214L126.912 0.67077C126.457 0.0642975 125.81 -0.278697 125.041 -0.278697V1.67359ZM125.34 1.82903L131.433 10.2421L133.015 9.09693L126.921 0.683877L125.34 1.82903ZM133.2 9.66951V1.45211H131.248V9.66951H133.2ZM133.2 1.45211C133.2 1.47087 133.196 1.50512 133.18 1.54442C133.163 1.58317 133.144 1.60528 133.138 1.61129L131.757 0.230812C131.431 0.557101 131.248 0.980101 131.248 1.45211H133.2ZM133.138 1.61128C133.132 1.6173 133.11 1.63668 133.071 1.653C133.032 1.66954 132.997 1.67359 132.979 1.67359V-0.278697C132.507 -0.278697 132.084 -0.0954777 131.757 0.230814L133.138 1.61128ZM132.979 1.67359H138.177V-0.278697H132.979V1.67359ZM149.151 19.3124L150.063 19.661L150.067 19.6509L150.07 19.6407L149.151 19.3124ZM142.163 20.095L141.422 20.7303L141.471 20.7873L141.528 20.8361L142.163 20.095ZM141.996 19.6478L141.033 19.4873L141.02 19.567V19.6478H141.996ZM142.024 19.4801L141.1 19.1649L141.074 19.2407L141.061 19.3196L142.024 19.4801ZM148.117 1.61981L149.041 1.93499L149.045 1.921L149.05 1.90688L148.117 1.61981ZM148.536 0.97695L147.879 0.254661V0.254664L148.536 0.97695ZM157.983 0.97695L158.64 0.254662V0.254662L157.983 0.97695ZM158.403 1.61981L157.47 1.90688L157.474 1.921L157.479 1.93499L158.403 1.61981ZM164.496 19.4801L165.459 19.3196L165.445 19.2407L165.42 19.1649L164.496 19.4801ZM164.524 19.6478H165.5V19.567L165.486 19.4873L164.524 19.6478ZM164.328 20.095L165.018 20.7852V20.7852L164.328 20.095ZM157.368 19.3124L156.449 19.6407L156.453 19.6509L156.457 19.661L157.368 19.3124ZM156.67 17.3559L157.589 17.0275L157.357 16.3797H156.67V17.3559ZM149.85 17.3559V16.3797H149.162L148.93 17.0275L149.85 17.3559ZM153.26 6.09187L154.183 5.77653L153.26 3.07016L152.336 5.77653L153.26 6.09187ZM151.275 11.9055L150.351 11.5902L149.911 12.8817H151.275V11.9055ZM155.244 11.9055V12.8817H156.609L156.168 11.5902L155.244 11.9055ZM148.239 18.9638C148.165 19.1586 148.093 19.226 148.066 19.2463C148.049 19.2597 148.009 19.2866 147.893 19.2866V21.2388C148.374 21.2388 148.842 21.1073 149.243 20.804C149.636 20.5075 149.895 20.0997 150.063 19.661L148.239 18.9638ZM147.893 19.2866H142.611V21.2388H147.893V19.2866ZM142.611 19.2866C142.637 19.2866 142.675 19.2915 142.716 19.3068C142.756 19.322 142.784 19.3414 142.799 19.3538L141.528 20.8361C141.831 21.0955 142.204 21.2388 142.611 21.2388V19.2866ZM142.904 19.4597C142.917 19.4743 142.936 19.5021 142.952 19.5426C142.967 19.5834 142.972 19.6209 142.972 19.6478H141.02C141.02 20.0547 141.163 20.4276 141.422 20.7303L142.904 19.4597ZM142.959 19.8083L142.986 19.6406L141.061 19.3196L141.033 19.4873L142.959 19.8083ZM142.947 19.7953L149.041 1.93499L147.193 1.30463L141.1 19.1649L142.947 19.7953ZM149.05 1.90688C149.068 1.8472 149.105 1.77917 149.193 1.69924L147.879 0.254664C147.557 0.547401 147.314 0.907949 147.184 1.33274L149.05 1.90688ZM149.193 1.69924C149.188 1.7032 149.189 1.69977 149.208 1.69337C149.231 1.68588 149.282 1.67359 149.375 1.67359V-0.278697C148.847 -0.278697 148.31 -0.136568 147.879 0.254661L149.193 1.69924ZM149.375 1.67359H157.145V-0.278697H149.375V1.67359ZM157.145 1.67359C157.237 1.67359 157.289 1.68588 157.311 1.69337C157.33 1.69977 157.331 1.7032 157.327 1.69924L158.64 0.254662C158.21 -0.136568 157.672 -0.278697 157.145 -0.278697V1.67359ZM157.327 1.69924C157.415 1.77917 157.451 1.8472 157.47 1.90688L159.335 1.33274C159.205 0.907947 158.962 0.547399 158.64 0.254662L157.327 1.69924ZM157.479 1.93499L163.572 19.7953L165.42 19.1649L159.326 1.30463L157.479 1.93499ZM163.533 19.6406L163.561 19.8083L165.486 19.4873L165.459 19.3196L163.533 19.6406ZM163.547 19.6478C163.547 19.6012 163.557 19.5468 163.58 19.4941C163.603 19.4432 163.628 19.4142 163.638 19.4048L165.018 20.7852C165.312 20.4918 165.5 20.1015 165.5 19.6478H163.547ZM163.638 19.4048C163.671 19.372 163.718 19.338 163.777 19.3144C163.835 19.2913 163.883 19.2866 163.909 19.2866V21.2388C164.318 21.2388 164.711 21.0921 165.018 20.7852L163.638 19.4048ZM163.909 19.2866H158.626V21.2388H163.909V19.2866ZM158.626 19.2866C158.51 19.2866 158.471 19.2597 158.453 19.2463C158.426 19.226 158.355 19.1586 158.28 18.9638L156.457 19.661C156.624 20.0997 156.884 20.5075 157.276 20.8039C157.678 21.1073 158.146 21.2388 158.626 21.2388V19.2866ZM158.288 18.9841L157.589 17.0275L155.75 17.6842L156.449 19.6407L158.288 18.9841ZM156.67 16.3797H149.85V18.332H156.67V16.3797ZM148.93 17.0275L148.232 18.9841L150.07 19.6407L150.769 17.6842L148.93 17.0275ZM152.336 5.77653L150.351 11.5902L152.199 12.2209L154.183 6.4072L152.336 5.77653ZM151.275 12.8817H155.244V10.9294H151.275V12.8817ZM156.168 11.5902L154.183 5.77653L152.336 6.4072L154.32 12.2209L156.168 11.5902Z" fill="#9945FF" mask="url(#path-1-outside-1_38_1256)"/>
</g>
<defs>
<filter id="filter0_d_38_1256" x="0.548828" y="0.417969" width="163.975" height="20.9049" filterUnits="userSpaceOnUse" color-interpolation-filters="sRGB">
<feFlood flood-opacity="0" result="BackgroundImageFix"/>
<feColorMatrix in="SourceAlpha" type="matrix" values="0 0 0 0 0 0 0 0 0 0 0 0 0 0 0 0 0 0 127 0" result="hardAlpha"/>
<feOffset dy="0.780915"/>
<feComposite in2="hardAlpha" operator="out"/>
<feColorMatrix type="matrix" values="0 0 0 0 0.6 0 0 0 0 0.270588 0 0 0 0 1 0 0 0 1 0"/>
<feBlend mode="normal" in2="BackgroundImageFix" result="effect1_dropShadow_38_1256"/>
<feBlend mode="normal" in="SourceGraphic" in2="effect1_dropShadow_38_1256" result="shape"/>
</filter>
</defs>
</svg>
