<svg width="392" height="392" viewBox="0 0 392 392" fill="none" xmlns="http://www.w3.org/2000/svg">
<rect x="3.23077" y="3.23077" width="385.538" height="385.538" rx="192.769" fill="url(#paint0_angular_36_1218)"/>
<rect x="3.23077" y="3.23077" width="385.538" height="385.538" rx="192.769" stroke="#818182" stroke-width="6.46154"/>
<g filter="url(#filter0_d_36_1218)">
<rect x="40" y="40" width="311" height="311" rx="155.5" fill="url(#paint1_linear_36_1218)" shape-rendering="crispEdges"/>
<rect x="42.5632" y="42.5632" width="305.874" height="305.874" rx="152.937" stroke="#818182" stroke-width="5.12637" shape-rendering="crispEdges"/>
<g filter="url(#filter1_d_36_1218)">
<path d="M241.751 103.692L274.387 134.129C275.096 134.787 275.662 135.585 276.049 136.471C276.436 137.358 276.637 138.315 276.638 139.282V283.568C276.637 284.256 276.436 284.929 276.059 285.505C275.682 286.08 275.145 286.533 274.514 286.809C273.884 287.084 273.186 287.169 272.508 287.054C271.829 286.939 271.199 286.629 270.694 286.161L238.058 255.758C237.35 255.1 236.784 254.303 236.397 253.416C236.01 252.529 235.809 251.573 235.808 250.605V106.32C235.794 105.625 235.985 104.942 236.358 104.356C236.731 103.77 237.269 103.308 237.905 103.027C238.54 102.746 239.244 102.659 239.929 102.777C240.613 102.896 241.247 103.214 241.751 103.692ZM176.016 134.129C175.31 134.79 174.747 135.588 174.36 136.474C173.973 137.36 173.771 138.315 173.766 139.282V283.568C173.766 284.256 173.967 284.929 174.344 285.505C174.721 286.08 175.258 286.533 175.889 286.809C176.519 287.084 177.217 287.169 177.895 287.054C178.574 286.939 179.204 286.629 179.709 286.161L212.362 255.758C213.068 255.097 213.631 254.3 214.018 253.414C214.405 252.528 214.607 251.572 214.612 250.605V106.32C214.608 105.633 214.405 104.962 214.027 104.389C213.648 103.816 213.111 103.366 212.481 103.092C211.851 102.819 211.155 102.735 210.478 102.851C209.801 102.967 209.173 103.277 208.669 103.743L176.016 134.129ZM152.569 283.568V139.282C152.569 138.315 152.368 137.358 151.981 136.471C151.594 135.585 151.028 134.787 150.319 134.129L117.683 103.692C117.306 103.335 116.855 103.066 116.361 102.904C115.868 102.742 115.345 102.691 114.83 102.754C114.315 102.818 113.82 102.994 113.381 103.271C112.941 103.548 112.569 103.919 112.29 104.357C111.917 104.942 111.726 105.625 111.74 106.32L111.74 250.605C111.741 251.573 111.941 252.529 112.328 253.416C112.716 254.303 113.281 255.1 113.99 255.758L146.626 286.161C147.131 286.629 147.761 286.939 148.44 287.054C149.118 287.169 149.816 287.084 150.446 286.809C151.077 286.533 151.614 286.08 151.991 285.505C152.368 284.929 152.569 284.256 152.569 283.568Z" fill="url(#paint2_linear_36_1218)"/>
<path d="M117.683 103.692C117.306 103.335 116.855 103.066 116.361 102.904C115.868 102.742 115.345 102.691 114.83 102.754C114.315 102.818 113.82 102.994 113.381 103.271M117.683 103.692L111.74 106.32C111.726 105.625 111.917 104.942 112.29 104.357M117.683 103.692L150.319 134.129L117.683 103.692ZM113.381 103.271C112.941 103.548 112.569 103.919 112.29 104.357M113.381 103.271L114.448 104.963C114.638 104.843 114.852 104.767 115.075 104.739C115.297 104.712 115.524 104.734 115.737 104.804C115.95 104.874 116.146 104.99 116.309 105.145L116.319 105.154L148.955 135.592L148.959 135.595C149.466 136.066 149.871 136.637 150.148 137.272C150.425 137.906 150.569 138.591 150.569 139.284V283.566C150.569 283.866 150.482 284.158 150.318 284.409C150.154 284.659 149.92 284.856 149.646 284.976C149.372 285.095 149.069 285.132 148.774 285.082C148.48 285.032 148.206 284.898 147.987 284.695C147.986 284.695 147.986 284.695 147.985 284.694L115.353 254.295L115.351 254.293C114.844 253.821 114.439 253.251 114.161 252.616C113.884 251.981 113.741 251.296 113.74 250.604L113.74 106.32V106.299L113.74 106.278C113.733 105.978 113.816 105.683 113.977 105.43M113.381 103.271L114.448 104.963C114.258 105.082 114.098 105.242 113.977 105.43M112.29 104.357L113.977 105.43M112.29 104.357L113.976 105.432C113.976 105.432 113.977 105.431 113.977 105.43M240.375 105.143L240.381 105.149L240.387 105.154L273.023 135.592L273.027 135.595C273.534 136.066 273.939 136.637 274.216 137.272C274.494 137.906 274.637 138.591 274.638 139.284V283.566C274.637 283.866 274.55 284.158 274.386 284.409C274.222 284.659 273.989 284.856 273.715 284.976C273.44 285.095 273.137 285.132 272.842 285.082C272.548 285.033 272.275 284.898 272.055 284.696C272.055 284.695 272.054 284.695 272.054 284.694L239.422 254.295L239.419 254.293C238.912 253.821 238.507 253.25 238.23 252.616C237.952 251.981 237.809 251.296 237.808 250.603V106.32V106.299L237.808 106.279C237.802 105.978 237.884 105.683 238.046 105.43C238.207 105.177 238.439 104.977 238.714 104.856C238.988 104.734 239.292 104.697 239.588 104.748C239.884 104.799 240.158 104.937 240.375 105.143ZM176.017 284.409L174.344 285.505L176.017 284.409C175.853 284.158 175.766 283.866 175.766 283.566V139.289C175.77 138.595 175.915 137.91 176.193 137.274C176.471 136.637 176.875 136.064 177.382 135.589C177.383 135.589 177.383 135.589 177.383 135.589L210.028 105.21C210.028 105.21 210.029 105.21 210.029 105.209C210.248 105.007 210.521 104.873 210.815 104.822C211.109 104.772 211.412 104.809 211.686 104.927C211.96 105.046 212.193 105.242 212.357 105.491C212.521 105.739 212.61 106.029 212.612 106.326V250.6C212.608 251.293 212.462 251.978 212.185 252.613C211.907 253.249 211.503 253.822 210.997 254.297C210.996 254.297 210.995 254.298 210.995 254.298L178.35 284.694C178.349 284.694 178.349 284.695 178.348 284.695C178.129 284.898 177.856 285.032 177.561 285.082C177.266 285.132 176.963 285.095 176.689 284.976L175.889 286.809L176.689 284.976C176.414 284.856 176.181 284.659 176.017 284.409Z" stroke="#676767" stroke-width="4"/>
</g>
</g>
<defs>
<filter id="filter0_d_36_1218" x="40" y="38" width="316" height="315" filterUnits="userSpaceOnUse" color-interpolation-filters="sRGB">
<feFlood flood-opacity="0" result="BackgroundImageFix"/>
<feColorMatrix in="SourceAlpha" type="matrix" values="0 0 0 0 0 0 0 0 0 0 0 0 0 0 0 0 0 0 127 0" result="hardAlpha"/>
<feOffset dx="3"/>
<feGaussianBlur stdDeviation="1"/>
<feComposite in2="hardAlpha" operator="out"/>
<feColorMatrix type="matrix" values="0 0 0 0 0 0 0 0 0 0 0 0 0 0 0 0 0 0 0.25 0"/>
<feBlend mode="normal" in2="BackgroundImageFix" result="effect1_dropShadow_36_1218"/>
<feBlend mode="normal" in="SourceGraphic" in2="effect1_dropShadow_36_1218" result="shape"/>
</filter>
<filter id="filter1_d_36_1218" x="111.739" y="98.7258" width="172.898" height="192.378" filterUnits="userSpaceOnUse" color-interpolation-filters="sRGB">
<feFlood flood-opacity="0" result="BackgroundImageFix"/>
<feColorMatrix in="SourceAlpha" type="matrix" values="0 0 0 0 0 0 0 0 0 0 0 0 0 0 0 0 0 0 127 0" result="hardAlpha"/>
<feOffset dx="4"/>
<feGaussianBlur stdDeviation="2"/>
<feComposite in2="hardAlpha" operator="out"/>
<feColorMatrix type="matrix" values="0 0 0 0 0 0 0 0 0 0 0 0 0 0 0 0 0 0 0.25 0"/>
<feBlend mode="normal" in2="BackgroundImageFix" result="effect1_dropShadow_36_1218"/>
<feBlend mode="normal" in="SourceGraphic" in2="effect1_dropShadow_36_1218" result="shape"/>
</filter>
<radialGradient id="paint0_angular_36_1218" cx="0" cy="0" r="1" gradientUnits="userSpaceOnUse" gradientTransform="translate(191.588 188.752) rotate(37.5843) scale(244.697)">
<stop offset="0.12" stop-color="#C3C5CA" stop-opacity="0.37"/>
<stop offset="0.27" stop-color="#D2D7E4" stop-opacity="0"/>
<stop offset="0.49" stop-color="#949599" stop-opacity="0"/>
<stop offset="0.665" stop-color="#A7AAB6" stop-opacity="0.53"/>
<stop offset="0.845" stop-color="#7D7F86" stop-opacity="0"/>
<stop offset="1" stop-color="#767676" stop-opacity="0.31"/>
</radialGradient>
<linearGradient id="paint1_linear_36_1218" x1="332" y1="40" x2="52" y2="339.5" gradientUnits="userSpaceOnUse">
<stop offset="0.12" stop-color="#C3C5CA" stop-opacity="0.47"/>
<stop offset="0.27" stop-color="#D2D7E4" stop-opacity="0.58"/>
<stop offset="0.49" stop-color="#949599" stop-opacity="0.42"/>
<stop offset="0.665" stop-color="#A7AAB6" stop-opacity="0.37"/>
<stop offset="0.845" stop-color="#7D7F86" stop-opacity="0.09"/>
<stop offset="1" stop-color="#BCBCBC"/>
</linearGradient>
<linearGradient id="paint2_linear_36_1218" x1="111.739" y1="113.99" x2="286.889" y2="260.436" gradientUnits="userSpaceOnUse">
<stop offset="0.12" stop-color="#C3C5CA"/>
<stop offset="0.27" stop-color="#DCE0EB"/>
<stop offset="0.49" stop-color="#949599"/>
<stop offset="0.665" stop-color="#A7AAB6"/>
<stop offset="0.845" stop-color="#7D7F86"/>
<stop offset="1" stop-color="#BCBCBC"/>
</linearGradient>
</defs>
</svg>
