<svg width="35" height="36" viewBox="0 0 35 36" fill="none" xmlns="http://www.w3.org/2000/svg">
<g filter="url(#filter0_d_38_1257)">
<path d="M26.8596 0.573002L33.1999 6.06026C33.3376 6.17893 33.4475 6.32267 33.5227 6.48251C33.5979 6.64235 33.6368 6.81485 33.637 6.98926V33.0011C33.637 33.1252 33.5979 33.2465 33.5246 33.3503C33.4514 33.4541 33.3471 33.5358 33.2246 33.5854C33.102 33.635 32.9666 33.6504 32.8347 33.6297C32.7029 33.609 32.5805 33.553 32.4824 33.4687L26.1421 27.9876C26.0044 27.869 25.8945 27.7252 25.8193 27.5654C25.7441 27.4056 25.7051 27.2331 25.705 27.0586V1.04679C25.7022 0.921585 25.7393 0.798412 25.8118 0.692772C25.8843 0.587135 25.9888 0.503742 26.1122 0.453098C26.2357 0.402451 26.3725 0.386814 26.5054 0.40815C26.6384 0.429485 26.7616 0.486839 26.8596 0.573002ZM14.0888 6.06026C13.9517 6.17941 13.8422 6.32323 13.7671 6.48296C13.6919 6.64269 13.6526 6.81497 13.6517 6.98926L13.6517 33.0011C13.6517 33.1252 13.6908 33.2465 13.7641 33.3503C13.8373 33.4541 13.9416 33.5358 14.0641 33.5854C14.1867 33.635 14.3221 33.6504 14.4539 33.6297C14.5858 33.609 14.7082 33.553 14.8063 33.4687L21.1499 27.9876C21.287 27.8685 21.3965 27.7247 21.4716 27.5649C21.5468 27.4052 21.5861 27.2329 21.5871 27.0586V1.04679C21.5864 0.922989 21.5468 0.802059 21.4733 0.698746C21.3998 0.595432 21.2955 0.514202 21.1731 0.464958C21.0507 0.415714 20.9155 0.400585 20.784 0.421421C20.6525 0.442257 20.5303 0.498154 20.4325 0.582291L14.0888 6.06026ZM9.53379 33.0011V6.98926C9.53363 6.81485 9.49473 6.64234 9.41951 6.4825C9.3443 6.32266 9.23439 6.17892 9.09664 6.06026L2.75632 0.573002C2.68304 0.508678 2.59535 0.460175 2.49953 0.430954C2.4037 0.401733 2.30211 0.392521 2.202 0.403969C2.10189 0.415421 2.00574 0.447247 1.92043 0.497185C1.83512 0.547123 1.76275 0.613937 1.70849 0.692844C1.63607 0.798473 1.59891 0.921616 1.60171 1.04679L1.60171 27.0586C1.60191 27.2331 1.64083 27.4056 1.71604 27.5654C1.79125 27.7252 1.90114 27.869 2.03886 27.9876L8.37918 33.4687C8.47725 33.553 8.59969 33.609 8.73151 33.6297C8.86332 33.6504 8.99879 33.635 9.12132 33.5854C9.24386 33.5358 9.34813 33.4541 9.42139 33.3503C9.49465 33.2465 9.53371 33.1252 9.53379 33.0011Z" fill="url(#paint0_linear_38_1257)"/>
</g>
<defs>
<filter id="filter0_d_38_1257" x="0.601562" y="0.398438" width="34.0352" height="35.2402" filterUnits="userSpaceOnUse" color-interpolation-filters="sRGB">
<feFlood flood-opacity="0" result="BackgroundImageFix"/>
<feColorMatrix in="SourceAlpha" type="matrix" values="0 0 0 0 0 0 0 0 0 0 0 0 0 0 0 0 0 0 127 0" result="hardAlpha"/>
<feOffset dy="1"/>
<feGaussianBlur stdDeviation="0.5"/>
<feComposite in2="hardAlpha" operator="out"/>
<feColorMatrix type="matrix" values="0 0 0 0 0 0 0 0 0 0 0 0 0 0 0 0 0 0 0.25 0"/>
<feBlend mode="normal" in2="BackgroundImageFix" result="effect1_dropShadow_38_1257"/>
<feBlend mode="normal" in="SourceGraphic" in2="effect1_dropShadow_38_1257" result="shape"/>
</filter>
<linearGradient id="paint0_linear_38_1257" x1="2" y1="28" x2="32.204" y2="6.3876" gradientUnits="userSpaceOnUse">
<stop offset="0.12" stop-color="#C3C5CA"/>
<stop offset="0.27" stop-color="#DCE0EB"/>
<stop offset="0.49" stop-color="#949599"/>
<stop offset="0.665" stop-color="#A7AAB6"/>
<stop offset="0.845" stop-color="#7D7F86"/>
<stop offset="1" stop-color="#BCBCBC"/>
</linearGradient>
</defs>
</svg>
